<?xml version="1.0" encoding="utf-8"?>
<!-- Generator: Adobe Illustrator 21.1.0, SVG Export Plug-In . SVG Version: 6.00 Build 0)  -->
<svg version="1.1" id="Layer_1" xmlns="http://www.w3.org/2000/svg" xmlns:xlink="http://www.w3.org/1999/xlink" x="0px" y="0px"
	 viewBox="0 0 791.4 330.1" style="enable-background:new 0 0 791.4 330.1;" xml:space="preserve">
<style type="text/css">
	.st0{fill:#EC008C;}
	.st1{fill:#00AEEF;}
	.st2{fill:#FFF200;}
</style>
<rect width="791.4" height="330.1"/>
<g>
	<path class="st0" d="M443.1,109.2l-3.4-14.5c0,0-0.7-3.6,2.9-6.2c3.6-2.6,12.1-7.6,26.9-8.3c14.8-0.7,29,4.5,32.4,6.7
		c0,0,3.8,1.7,2.8,7.2c-1,5.5-3.4,12.2-3.4,12.2l1.7-12.4c0,0,0.7-3.4-2.8-5.3c-3.4-1.9-32.6-11.9-54.3,2.1c0,0-2.8,1.2-1.6,6.2
		l2.4,11.2L443.1,109.2z"/>
	<path class="st0" d="M432.7,136.4l-3.1-14.8c0,0-1.6-3.4,3.6-7.2c5.2-3.8,10-7.4,24.1-9.3c14.1-1.9,40.5,1.2,52.7,8.4
		c0,0,5.3,1.9,3.4,10.2l-4.8,21.2l-5-1.7l5.2-20.5c0,0,1-4.5-2.6-6.4c-3.6-1.9-17.6-6.7-28.1-7.6c-10.5-0.9-32.4-2.2-44.6,7.9
		c0,0-2.6,1.6-2.2,6C431.7,127.1,432.7,136.4,432.7,136.4z"/>
	<path class="st0" d="M401.5,196.2c0,0,12.4,8.1,50.2,13.1c37.7,5,71.7-0.3,84.3-3.6c12.6-3.3,16.2-11-26.4-15.7
		c-42.6-4.7-82.6,1.2-82.6,1.2l-4.7-35.7c0,0-1.4-4.3,4.7-7.2c6-2.9,31.7-10,57.7-6.6c26,3.4,36.7,8.4,35.5,15
		c-1.2,6.5-4.3,28.6-4.3,28.6l6.5-29.6c0,0,1.1-4.7-5.5-8.4c-7.1-4-46.5-19.1-92.7-2.6c0,0-8.3,2.1-6.7,14.3l5.3,34.6
		c0,0,21-3.3,48.4-2.8c27.4,0.5,68.4,4.7,61.2,11.2C525.3,208.6,442,212.4,401.5,196.2z"/>
	<path class="st0" d="M467.9,82l1.9-20.7c0,0-4,2.1-5-2.1c-1-4.1,6.2-3.2,7.2-7.2c0.2-0.7-0.3-8.1-0.3-8.1s-1.2,3.8-6.2,2.9
		c-5-0.9-4.6-10.2,0.5-13.8c4.8-3.3,12.8-12.2,6.2-13.6c0,0,2.9-1.2,4.1,2.4c1.2,3.6-0.7,7-6.7,12.7c-6,5.7-1.7,10.9,4.8,4.2
		c0,0-1.4,8.4,0.7,14.5c0,0-3.8,1.9-4.8,2.2c-1,0.3-4.8,3.6,1.2,1.9l-0.2,24.1L467.9,82z"/>
	<polygon class="st0" points="478.2,82 478.2,62.7 479.9,81.8 	"/>
</g>
<g>
	<path class="st0" d="M301.1,109.9c0,0,0,19.6-1.3,25.9c-1.3,6.3-7.6,12.3-17.5,12.6c-9.8,0.4-13.3-7.4,0.6-12.6
		c14-5.3,37.2,3.5,43.2,11.6c6,8.1,6,19.3-18.7,25.9c-24.8,6.7-58.5-2.5-39.1-13c19.4-10.5,54.6,0.3,61.9,6
		c7.3,5.6,22.2,17.2,5.7,33.3c-16.5,16.1-56.2,13.3-71.2,10.2c-14.9-3.2-30.2-12.3-0.3-22.8c29.9-10.5,77.8,4.2,88.6,13.7
		c0,0,1.6,3.2,1.6,5.6l-5.1,41.3c0,0-0.3,3.2-4.1,5.6c-3.8,2.5-45.7,23.5-89.3-4.6c0,0,42.6,24.5,87.7,0.4c0,0,1.9-1.1,2.9-5.3
		c1-4.2,5.1-38.5,5.1-38.5s0.3-2.1-0.6-3.2c-1-1.1-21.6-13-52.4-14.4c-30.8-1.4-56.2,10.9-34.6,15.8c21.6,4.9,58.4,4.9,70.5-10.5
		c12.1-15.4-9.5-31.9-38.8-33.3c-29.2-1.4-28,8.1-18.4,9.8c9.5,1.7,29.9,2.8,42.6-6.7c12.7-9.5-3.5-24.5-23.2-25.9
		c-19.7-1.4-23.2,7.4-15.9,8.8c7.3,1.4,16.2-0.3,14.3-31.5L301.1,109.9z"/>
	<path class="st0" d="M304,277.7c-38.1-2.1-58.1-15.4-64.5-23.8c-6.1-8.1,3.3-15.5,13-16.7l-1.3-8.9c-5.2,1.3-24.3,7.3-19.7,24.6
		c5.4,20,82.3,52.5,140.4,7C372,259.8,342.1,279.8,304,277.7z"/>
	<path class="st0" d="M297.8,109.8c0,0-5.2-1.8-5.7-7c-0.5-5.1,8-10.9,4.2-16.7c0,0,6.6,2.1,4.9,9.6
		C299.4,103.2,295.5,103.7,297.8,109.8z"/>
</g>
<g>
	<path class="st1" d="M449.1,115.2l-3.4-14.5c0,0-0.7-3.6,2.9-6.2c3.6-2.6,12.1-7.6,26.9-8.3c14.8-0.7,29,4.5,32.4,6.7
		c0,0,3.8,1.7,2.8,7.2c-1,5.5-3.4,12.2-3.4,12.2l1.7-12.4c0,0,0.7-3.4-2.8-5.3c-3.4-1.9-32.6-11.9-54.3,2.1c0,0-2.8,1.2-1.6,6.2
		l2.4,11.2L449.1,115.2z"/>
	<path class="st1" d="M438.7,142.4l-3.1-14.8c0,0-1.6-3.4,3.6-7.2c5.2-3.8,10-7.4,24.1-9.3c14.1-1.9,40.5,1.2,52.7,8.4
		c0,0,5.3,1.9,3.4,10.2l-4.8,21.2l-5-1.7l5.2-20.5c0,0,1-4.5-2.6-6.4c-3.6-1.9-17.6-6.7-28.1-7.6c-10.5-0.9-32.4-2.2-44.6,7.9
		c0,0-2.6,1.6-2.2,6C437.7,133.1,438.7,142.4,438.7,142.4z"/>
	<path class="st1" d="M407.5,202.2c0,0,12.4,8.1,50.2,13.1c37.7,5,71.7-0.3,84.3-3.6c12.6-3.3,16.2-11-26.4-15.7
		c-42.6-4.7-82.6,1.2-82.6,1.2l-4.7-35.7c0,0-1.4-4.3,4.7-7.2c6-2.9,31.7-10,57.7-6.6c26,3.4,36.7,8.4,35.5,15
		c-1.2,6.5-4.3,28.6-4.3,28.6l6.5-29.6c0,0,1.1-4.7-5.5-8.4c-7.1-4-46.5-19.1-92.7-2.6c0,0-8.3,2.1-6.7,14.3l5.3,34.6
		c0,0,21-3.3,48.4-2.8c27.4,0.5,68.4,4.7,61.2,11.2C531.3,214.6,448,218.4,407.5,202.2z"/>
	<path class="st1" d="M473.9,88l1.9-20.7c0,0-4,2.1-5-2.1c-1-4.1,6.2-3.2,7.2-7.2c0.2-0.7-0.3-8.1-0.3-8.1s-1.2,3.8-6.2,2.9
		c-5-0.9-4.6-10.2,0.5-13.8c4.8-3.3,12.8-12.2,6.2-13.6c0,0,2.9-1.2,4.1,2.4c1.2,3.6-0.7,7-6.7,12.7c-6,5.7-1.7,10.9,4.8,4.2
		c0,0-1.4,8.4,0.7,14.5c0,0-3.8,1.9-4.8,2.2c-1,0.3-4.8,3.6,1.2,1.9l-0.2,24.1L473.9,88z"/>
	<polygon class="st1" points="484.2,88 484.2,68.7 485.9,87.8 	"/>
</g>
<g>
	<path class="st2" d="M447.1,113.2l-3.4-14.5c0,0-0.7-3.6,2.9-6.2c3.6-2.6,12.1-7.6,26.9-8.3c14.8-0.7,29,4.5,32.4,6.7
		c0,0,3.8,1.7,2.8,7.2c-1,5.5-3.4,12.2-3.4,12.2l1.7-12.4c0,0,0.7-3.4-2.8-5.3c-3.4-1.9-32.6-11.9-54.3,2.1c0,0-2.8,1.2-1.6,6.2
		l2.4,11.2L447.1,113.2z"/>
	<path class="st2" d="M436.7,140.4l-3.1-14.8c0,0-1.6-3.4,3.6-7.2c5.2-3.8,10-7.4,24.1-9.3c14.1-1.9,40.5,1.2,52.7,8.4
		c0,0,5.3,1.9,3.4,10.2l-4.8,21.2l-5-1.7l5.2-20.5c0,0,1-4.5-2.6-6.4c-3.6-1.9-17.6-6.7-28.1-7.6c-10.5-0.9-32.4-2.2-44.6,7.9
		c0,0-2.6,1.6-2.2,6C435.7,131.1,436.7,140.4,436.7,140.4z"/>
	<path class="st2" d="M405.5,200.2c0,0,12.4,8.1,50.2,13.1c37.7,5,71.7-0.3,84.3-3.6c12.6-3.3,16.2-11-26.4-15.7
		c-42.6-4.7-82.6,1.2-82.6,1.2l-4.7-35.7c0,0-1.4-4.3,4.7-7.2c6-2.9,31.7-10,57.7-6.6c26,3.4,36.7,8.4,35.5,15
		c-1.2,6.5-4.3,28.6-4.3,28.6l6.5-29.6c0,0,1.1-4.7-5.5-8.4c-7.1-4-46.5-19.1-92.7-2.6c0,0-8.3,2.1-6.7,14.3l5.3,34.6
		c0,0,21-3.3,48.4-2.8c27.4,0.5,68.4,4.7,61.2,11.2C529.3,212.6,446,216.4,405.5,200.2z"/>
	<path class="st2" d="M471.9,86l1.9-20.7c0,0-4,2.1-5-2.1c-1-4.1,6.2-3.2,7.2-7.2c0.2-0.7-0.3-8.1-0.3-8.1s-1.2,3.8-6.2,2.9
		c-5-0.9-4.6-10.2,0.5-13.8c4.8-3.3,12.8-12.2,6.2-13.6c0,0,2.9-1.2,4.1,2.4c1.2,3.6-0.7,7-6.7,12.7c-6,5.7-1.7,10.9,4.8,4.2
		c0,0-1.4,8.4,0.7,14.5c0,0-3.8,1.9-4.8,2.2c-1,0.3-4.8,3.6,1.2,1.9l-0.2,24.1L471.9,86z"/>
	<polygon class="st2" points="482.2,86 482.2,66.7 483.9,85.8 	"/>
</g>
<g>
	<path class="st2" d="M305.1,113.9c0,0,0,19.6-1.3,25.9c-1.3,6.3-7.6,12.3-17.5,12.6c-9.8,0.4-13.3-7.4,0.6-12.6
		c14-5.3,37.2,3.5,43.2,11.6c6,8.1,6,19.3-18.7,25.9c-24.8,6.7-58.5-2.5-39.1-13c19.4-10.5,54.6,0.3,61.9,6
		c7.3,5.6,22.2,17.2,5.7,33.3c-16.5,16.1-56.2,13.3-71.2,10.2c-14.9-3.2-30.2-12.3-0.3-22.8c29.9-10.5,77.8,4.2,88.6,13.7
		c0,0,1.6,3.2,1.6,5.6l-5.1,41.3c0,0-0.3,3.2-4.1,5.6c-3.8,2.5-45.7,23.5-89.3-4.6c0,0,42.6,24.5,87.7,0.4c0,0,1.9-1.1,2.9-5.3
		c1-4.2,5.1-38.5,5.1-38.5s0.3-2.1-0.6-3.2c-1-1.1-21.6-13-52.4-14.4c-30.8-1.4-56.2,10.9-34.6,15.8c21.6,4.9,58.4,4.9,70.5-10.5
		c12.1-15.4-9.5-31.9-38.8-33.3c-29.2-1.4-28,8.1-18.4,9.8c9.5,1.7,29.9,2.8,42.6-6.7c12.7-9.5-3.5-24.5-23.2-25.9
		c-19.7-1.4-23.2,7.4-15.9,8.8c7.3,1.4,16.2-0.3,14.3-31.5L305.1,113.9z"/>
	<path class="st2" d="M308,281.7c-38.1-2.1-58.1-15.4-64.5-23.8c-6.1-8.1,3.3-15.5,13-16.7l-1.3-8.9c-5.2,1.3-24.3,7.3-19.7,24.6
		c5.4,20,82.3,52.5,140.4,7C376,263.8,346.1,283.8,308,281.7z"/>
	<path class="st2" d="M301.8,113.8c0,0-5.2-1.8-5.7-7c-0.5-5.1,8-10.9,4.2-16.7c0,0,6.6,2.1,4.9,9.6
		C303.4,107.2,299.5,107.7,301.8,113.8z"/>
</g>
<g>
	<path d="M445.1,111.2l-3.4-14.5c0,0-0.7-3.6,2.9-6.2c3.6-2.6,12.1-7.6,26.9-8.3c14.8-0.7,29,4.5,32.4,6.7c0,0,3.8,1.7,2.8,7.2
		c-1,5.5-3.4,12.2-3.4,12.2l1.7-12.4c0,0,0.7-3.4-2.8-5.3c-3.4-1.9-32.6-11.9-54.3,2.1c0,0-2.8,1.2-1.6,6.2l2.4,11.2L445.1,111.2z"
		/>
	<path d="M434.7,138.4l-3.1-14.8c0,0-1.6-3.4,3.6-7.2c5.2-3.8,10-7.4,24.1-9.3c14.1-1.9,40.5,1.2,52.7,8.4c0,0,5.3,1.9,3.4,10.2
		l-4.8,21.2l-5-1.7l5.2-20.5c0,0,1-4.5-2.6-6.4c-3.6-1.9-17.6-6.7-28.1-7.6c-10.5-0.9-32.4-2.2-44.6,7.9c0,0-2.6,1.6-2.2,6
		C433.7,129.1,434.7,138.4,434.7,138.4z"/>
	<path d="M403.5,198.2c0,0,12.4,8.1,50.2,13.1c37.7,5,71.7-0.3,84.3-3.6c12.6-3.3,16.2-11-26.4-15.7c-42.6-4.7-82.6,1.2-82.6,1.2
		l-4.7-35.7c0,0-1.4-4.3,4.7-7.2c6-2.9,31.7-10,57.7-6.6c26,3.4,36.7,8.4,35.5,15c-1.2,6.5-4.3,28.6-4.3,28.6l6.5-29.6
		c0,0,1.1-4.7-5.5-8.4c-7.1-4-46.5-19.1-92.7-2.6c0,0-8.3,2.1-6.7,14.3l5.3,34.6c0,0,21-3.3,48.4-2.8c27.4,0.5,68.4,4.7,61.2,11.2
		C527.3,210.6,444,214.4,403.5,198.2z"/>
	<path d="M469.9,84l1.9-20.7c0,0-4,2.1-5-2.1c-1-4.1,6.2-3.2,7.2-7.2c0.2-0.7-0.3-8.1-0.3-8.1s-1.2,3.8-6.2,2.9
		c-5-0.9-4.6-10.2,0.5-13.8c4.8-3.3,12.8-12.2,6.2-13.6c0,0,2.9-1.2,4.1,2.4c1.2,3.6-0.7,7-6.7,12.7c-6,5.7-1.7,10.9,4.8,4.2
		c0,0-1.4,8.4,0.7,14.5c0,0-3.8,1.9-4.8,2.2c-1,0.3-4.8,3.6,1.2,1.9l-0.2,24.1L469.9,84z"/>
	<polygon points="480.2,84 480.2,64.7 481.9,83.8 	"/>
</g>
<g>
	<path class="st0" d="M610.8,221.5c0,0-33.4,4-25.2,10.2c8.3,6.2,75.7,13.8,116,7.9c40.3-5.9,48.6-14.6,11.2-17.9l3.4-37.2
		c0,0,1.9-6.7-6-9.1c-7.9-2.4-50.3-15.5-102.7,23.4c0,0,46.4-33.6,99.3-20.2c0,0,5.5,0.9,5,6.2l-4,39.6c0,0,14.1,0.3,17.8,2.2
		c3.6,1.9,1.9,5.5-14.5,8.8c-16.4,3.3-76,4.5-103.4-1.7c-27.4-6.2,1-10.2,3.6-10.2L610.8,221.5z"/>
	<path class="st0" d="M608.7,210.3l5.7,31.9c0,0,4.5,9.3,32.4,13.8c27.9,4.5,55.5-1.9,66.5-9.6c0,0-16.7,7.8-38.6,7.6
		c-21.9-0.2-41.5-0.5-57.7-14L608.7,210.3z"/>
	<path class="st0" d="M623.4,188.4l-6.9-32.2c0,0-2.3-6.2,5.5-10c8.4-4.1,48.1-6.4,82.7,7.9c0,0-21.4-7.2-44.1-8.3
		c-22.8-1-31.6,1.9-35.2,3.3c-2.2,0.9-6,1.3-4.3,9.6L627,187L623.4,188.4z"/>
	<path class="st0" d="M688.3,149.6l3.4-25.7c0,0,1.6-7.9-7.6-9.5c-9.1-1.6-41.2-1.4-56,14c0,0,19.1-14.5,56.2-9.8
		c0,0,4.8,0.5,3.8,6.6l-4,23.1L688.3,149.6z"/>
	<polygon class="st0" points="703.3,174.6 704.9,159.2 701.4,174.6 	"/>
	<polygon class="st0" points="631.1,145.3 629.1,132.7 633.2,144.8 	"/>
	<path class="st0" d="M652,118l-1.2-21.5c0,0-2.8,1.2-5.2-0.5c-2.4-1.7-2.2-6.4,4.1-9.7c5.1-2.6,15.5-2.9,4.8-15.9
		c0,0-0.2,1.9-0.9,3.3c-0.7,1.4-4.1,9.8,1.9,6c0,0-2.8,2.8-5,2.2c-2.2-0.5-3.8-4.5-1.9-7.9c1.9-3.4,3.1-10,1.6-13.1
		c0,0,8.6,4.7,10.9,11.7c2.2,7.1,1.7,10.4-4.8,13.1c-2.9,1.2-11.1,2.7-9,6.4c1.5,2.5,3.4,1.2,5.5-0.7l2.4,25.5L652,118z"/>
	<polygon class="st0" points="660.8,116.2 659.2,100.6 662.7,116 	"/>
</g>
<g>
	<path class="st1" d="M162.3,180.5c0,0,33.4,4,25.2,10.2c-8.3,6.2-75.7,13.8-116,7.9c-40.3-5.9-48.6-14.6-11.2-17.9l-3.4-37.2
		c0,0-1.9-6.7,6-9.1c7.9-2.4,50.3-15.5,102.7,23.4c0,0-46.4-33.6-99.3-20.2c0,0-5.5,0.9-5,6.2l4,39.6c0,0-14.1,0.3-17.8,2.2
		c-3.6,1.9-1.9,5.5,14.5,8.8c16.4,3.3,76,4.5,103.4-1.7c27.4-6.2-1-10.2-3.6-10.2L162.3,180.5z"/>
	<path class="st1" d="M164.4,169.3l-5.7,31.9c0,0-4.5,9.3-32.4,13.8c-27.9,4.5-55.5-1.9-66.5-9.6c0,0,16.7,7.8,38.6,7.6
		c21.9-0.2,41.5-0.5,57.7-14L164.4,169.3z"/>
	<path class="st1" d="M149.8,147.4l6.9-32.2c0,0,2.3-6.2-5.5-10c-8.4-4.1-48.1-6.4-82.7,7.9c0,0,21.4-7.2,44.1-8.3
		c22.8-1,31.6,1.9,35.2,3.3c2.2,0.9,6,1.3,4.3,9.6l-5.9,28.3L149.8,147.4z"/>
	<path class="st1" d="M84.8,108.6l-3.4-25.7c0,0-1.6-7.9,7.6-9.5c9.1-1.6,41.2-1.4,56,14c0,0-19.1-14.5-56.2-9.8
		c0,0-4.8,0.5-3.8,6.6l4,23.1L84.8,108.6z"/>
	<polygon class="st1" points="69.8,133.6 68.2,118.2 71.7,133.6 	"/>
	<polygon class="st1" points="142,104.3 144.1,91.7 139.9,103.8 	"/>
	<path class="st1" d="M121.1,77l1.2-21.5c0,0,2.8,1.2,5.2-0.5c2.4-1.7,2.2-6.4-4.1-9.7c-5.1-2.6-15.5-2.9-4.8-15.9
		c0,0,0.2,1.9,0.9,3.3c0.7,1.4,4.1,9.8-1.9,6c0,0,2.8,2.8,5,2.2c2.2-0.5,3.8-4.5,1.9-7.9c-1.9-3.4-3.1-10-1.6-13.1
		c0,0-8.6,4.7-10.9,11.7c-2.2,7.1-1.7,10.4,4.8,13.1c2.9,1.2,11.1,2.7,9,6.4c-1.5,2.5-3.4,1.2-5.5-0.7L117.9,76L121.1,77z"/>
	<polygon class="st1" points="112.4,75.2 113.9,59.6 110.5,75 	"/>
</g>
<g>
	<path class="st2" d="M164.3,179.5c0,0,33.4,4,25.2,10.2c-8.3,6.2-75.7,13.8-116,7.9c-40.3-5.9-48.6-14.6-11.2-17.9l-3.4-37.2
		c0,0-1.9-6.7,6-9.1c7.9-2.4,50.3-15.5,102.7,23.4c0,0-46.4-33.6-99.3-20.2c0,0-5.5,0.9-5,6.2l4,39.6c0,0-14.1,0.3-17.8,2.2
		c-3.6,1.9-1.9,5.5,14.5,8.8c16.4,3.3,76,4.5,103.4-1.7c27.4-6.2-1-10.2-3.6-10.2L164.3,179.5z"/>
	<path class="st2" d="M166.4,168.3l-5.7,31.9c0,0-4.5,9.3-32.4,13.8c-27.9,4.5-55.5-1.9-66.5-9.6c0,0,16.7,7.8,38.6,7.6
		c21.9-0.2,41.5-0.5,57.7-14L166.4,168.3z"/>
	<path class="st2" d="M151.8,146.4l6.9-32.2c0,0,2.3-6.2-5.5-10c-8.4-4.1-48.1-6.4-82.7,7.9c0,0,21.4-7.2,44.1-8.3
		c22.8-1,31.6,1.9,35.2,3.3c2.2,0.9,6,1.3,4.3,9.6l-5.9,28.3L151.8,146.4z"/>
	<path class="st2" d="M86.8,107.6l-3.4-25.7c0,0-1.6-7.9,7.6-9.5c9.1-1.6,41.2-1.4,56,14c0,0-19.1-14.5-56.2-9.8
		c0,0-4.8,0.5-3.8,6.6l4,23.1L86.8,107.6z"/>
	<polygon class="st2" points="71.8,132.6 70.2,117.2 73.7,132.6 	"/>
	<polygon class="st2" points="144,103.3 146.1,90.7 141.9,102.8 	"/>
	<path class="st2" d="M123.1,76l1.2-21.5c0,0,2.8,1.2,5.2-0.5c2.4-1.7,2.2-6.4-4.1-9.7c-5.1-2.6-15.5-2.9-4.8-15.9
		c0,0,0.2,1.9,0.9,3.3c0.7,1.4,4.1,9.8-1.9,6c0,0,2.8,2.8,5,2.2c2.2-0.5,3.8-4.5,1.9-7.9c-1.9-3.4-3.1-10-1.6-13.1
		c0,0-8.6,4.7-10.9,11.7c-2.2,7.1-1.7,10.4,4.8,13.1c2.9,1.2,11.1,2.7,9,6.4c-1.5,2.5-3.4,1.2-5.5-0.7L119.9,75L123.1,76z"/>
	<polygon class="st2" points="114.4,74.2 115.9,58.6 112.5,74 	"/>
</g>
<g>
	<path class="st0" d="M166.3,177.5c0,0,33.4,4,25.2,10.2c-8.3,6.2-75.7,13.8-116,7.9c-40.3-5.9-48.6-14.6-11.2-17.9l-3.4-37.2
		c0,0-1.9-6.7,6-9.1c7.9-2.4,50.3-15.5,102.7,23.4c0,0-46.4-33.6-99.3-20.2c0,0-5.5,0.9-5,6.2l4,39.6c0,0-14.1,0.3-17.8,2.2
		c-3.6,1.9-1.9,5.5,14.5,8.8c16.4,3.3,76,4.5,103.4-1.7c27.4-6.2-1-10.2-3.6-10.2L166.3,177.5z"/>
	<path class="st0" d="M168.4,166.3l-5.7,31.9c0,0-4.5,9.3-32.4,13.8c-27.9,4.5-55.5-1.9-66.5-9.6c0,0,16.7,7.8,38.6,7.6
		c21.9-0.2,41.5-0.5,57.7-14L168.4,166.3z"/>
	<path class="st0" d="M153.8,144.4l6.9-32.2c0,0,2.3-6.2-5.5-10c-8.4-4.1-48.1-6.4-82.7,7.9c0,0,21.4-7.2,44.1-8.3
		c22.8-1,31.6,1.9,35.2,3.3c2.2,0.9,6,1.3,4.3,9.6l-5.9,28.3L153.8,144.4z"/>
	<path class="st0" d="M88.8,105.6l-3.4-25.7c0,0-1.6-7.9,7.6-9.5c9.1-1.6,41.2-1.4,56,14c0,0-19.1-14.5-56.2-9.8
		c0,0-4.8,0.5-3.8,6.6l4,23.1L88.8,105.6z"/>
	<polygon class="st0" points="73.8,130.6 72.2,115.2 75.7,130.6 	"/>
	<polygon class="st0" points="146,101.3 148.1,88.7 143.9,100.8 	"/>
	<path class="st0" d="M125.1,74l1.2-21.5c0,0,2.8,1.2,5.2-0.5c2.4-1.7,2.2-6.4-4.1-9.7c-5.1-2.6-15.5-2.9-4.8-15.9
		c0,0,0.2,1.9,0.9,3.3c0.7,1.4,4.1,9.8-1.9,6c0,0,2.8,2.8,5,2.2c2.2-0.5,3.8-4.5,1.9-7.9c-1.9-3.4-3.1-10-1.6-13.1
		c0,0-8.6,4.7-10.9,11.7c-2.2,7.1-1.7,10.4,4.8,13.1c2.9,1.2,11.1,2.7,9,6.4c-1.5,2.5-3.4,1.2-5.5-0.7L121.9,73L125.1,74z"/>
	<polygon class="st0" points="116.4,72.2 117.9,56.6 114.5,72 	"/>
</g>
<g>
	<path class="st1" d="M607.8,224.5c0,0-33.4,4-25.2,10.2c8.3,6.2,75.7,13.8,116,7.9c40.3-5.9,48.6-14.6,11.2-17.9l3.4-37.2
		c0,0,1.9-6.7-6-9.1c-7.9-2.4-50.3-15.5-102.7,23.4c0,0,46.4-33.6,99.3-20.2c0,0,5.5,0.9,5,6.2l-4,39.6c0,0,14.1,0.3,17.8,2.2
		c3.6,1.9,1.9,5.5-14.5,8.8c-16.4,3.3-76,4.5-103.4-1.7c-27.4-6.2,1-10.2,3.6-10.2L607.8,224.5z"/>
	<path class="st1" d="M605.7,213.3l5.7,31.9c0,0,4.5,9.3,32.4,13.8c27.9,4.5,55.5-1.9,66.5-9.6c0,0-16.7,7.8-38.6,7.6
		c-21.9-0.2-41.5-0.5-57.7-14L605.7,213.3z"/>
	<path class="st1" d="M620.4,191.4l-6.9-32.2c0,0-2.3-6.2,5.5-10c8.4-4.1,48.1-6.4,82.7,7.9c0,0-21.4-7.2-44.1-8.3
		c-22.8-1-31.6,1.9-35.2,3.3c-2.2,0.9-6,1.3-4.3,9.6L624,190L620.4,191.4z"/>
	<path class="st1" d="M685.3,152.6l3.4-25.7c0,0,1.6-7.9-7.6-9.5c-9.1-1.6-41.2-1.4-56,14c0,0,19.1-14.5,56.2-9.8
		c0,0,4.8,0.5,3.8,6.6l-4,23.1L685.3,152.6z"/>
	<polygon class="st1" points="700.3,177.6 701.9,162.2 698.4,177.6 	"/>
	<polygon class="st1" points="628.1,148.3 626.1,135.7 630.2,147.8 	"/>
	<path class="st1" d="M649,121l-1.2-21.5c0,0-2.8,1.2-5.2-0.5c-2.4-1.7-2.2-6.4,4.1-9.7c5.1-2.6,15.5-2.9,4.8-15.9
		c0,0-0.2,1.9-0.9,3.3c-0.7,1.4-4.1,9.8,1.9,6c0,0-2.8,2.8-5,2.2c-2.2-0.5-3.8-4.5-1.9-7.9c1.9-3.4,3.1-10,1.6-13.1
		c0,0,8.6,4.7,10.9,11.7c2.2,7.1,1.7,10.4-4.8,13.1c-2.9,1.2-11.1,2.7-9,6.4c1.5,2.5,3.4,1.2,5.5-0.7l2.4,25.5L649,121z"/>
	<polygon class="st1" points="657.8,119.2 656.2,103.6 659.7,119 	"/>
</g>
<g>
	<path d="M164.3,182.5c0,0,33.4,4,25.2,10.2c-8.3,6.2-75.7,13.8-116,7.9c-40.3-5.9-48.6-14.6-11.2-17.9l-3.4-37.2c0,0-1.9-6.7,6-9.1
		c7.9-2.4,50.3-15.5,102.7,23.4c0,0-46.4-33.6-99.3-20.2c0,0-5.5,0.9-5,6.2l4,39.6c0,0-14.1,0.3-17.8,2.2c-3.6,1.9-1.9,5.5,14.5,8.8
		c16.4,3.3,76,4.5,103.4-1.7c27.4-6.2-1-10.2-3.6-10.2L164.3,182.5z"/>
	<path d="M166.4,171.3l-5.7,31.9c0,0-4.5,9.3-32.4,13.8c-27.9,4.5-55.5-1.9-66.5-9.6c0,0,16.7,7.8,38.6,7.6
		c21.9-0.2,41.5-0.5,57.7-14L166.4,171.3z"/>
	<path d="M151.8,149.4l6.9-32.2c0,0,2.3-6.2-5.5-10c-8.4-4.1-48.1-6.4-82.7,7.9c0,0,21.4-7.2,44.1-8.3c22.8-1,31.6,1.9,35.2,3.3
		c2.2,0.9,6,1.3,4.3,9.6l-5.9,28.3L151.8,149.4z"/>
	<path d="M86.8,110.6l-3.4-25.7c0,0-1.6-7.9,7.6-9.5c9.1-1.6,41.2-1.4,56,14c0,0-19.1-14.5-56.2-9.8c0,0-4.8,0.5-3.8,6.6l4,23.1
		L86.8,110.6z"/>
	<polygon points="71.8,135.6 70.2,120.2 73.7,135.6 	"/>
	<polygon points="144,106.3 146.1,93.7 141.9,105.8 	"/>
	<path d="M123.1,79l1.2-21.5c0,0,2.8,1.2,5.2-0.5c2.4-1.7,2.2-6.4-4.1-9.7c-5.1-2.6-15.5-2.9-4.8-15.9c0,0,0.2,1.9,0.9,3.3
		c0.7,1.4,4.1,9.8-1.9,6c0,0,2.8,2.8,5,2.2c2.2-0.5,3.8-4.5,1.9-7.9c-1.9-3.4-3.1-10-1.6-13.1c0,0-8.6,4.7-10.9,11.7
		c-2.2,7.1-1.7,10.4,4.8,13.1c2.9,1.2,11.1,2.7,9,6.4c-1.5,2.5-3.4,1.2-5.5-0.7L119.9,78L123.1,79z"/>
	<polygon points="114.4,77.2 115.9,61.6 112.5,77 	"/>
</g>
<g>
	<path class="st1" d="M303.1,111.9c0,0,0,19.6-1.3,25.9c-1.3,6.3-7.6,12.3-17.5,12.6c-9.8,0.4-13.3-7.4,0.6-12.6
		c14-5.3,37.2,3.5,43.2,11.6c6,8.1,6,19.3-18.7,25.9c-24.8,6.7-58.5-2.5-39.1-13c19.4-10.5,54.6,0.3,61.9,6
		c7.3,5.6,22.2,17.2,5.7,33.3c-16.5,16.1-56.2,13.3-71.2,10.2c-14.9-3.2-30.2-12.3-0.3-22.8c29.9-10.5,77.8,4.2,88.6,13.7
		c0,0,1.6,3.2,1.6,5.6l-5.1,41.3c0,0-0.3,3.2-4.1,5.6c-3.8,2.5-45.7,23.5-89.3-4.6c0,0,42.6,24.5,87.7,0.4c0,0,1.9-1.1,2.9-5.3
		c1-4.2,5.1-38.5,5.1-38.5s0.3-2.1-0.6-3.2c-1-1.1-21.6-13-52.4-14.4c-30.8-1.4-56.2,10.9-34.6,15.8c21.6,4.9,58.4,4.9,70.5-10.5
		c12.1-15.4-9.5-31.9-38.8-33.3c-29.2-1.4-28,8.1-18.4,9.8c9.5,1.7,29.9,2.8,42.6-6.7c12.7-9.5-3.5-24.5-23.2-25.9
		c-19.7-1.4-23.2,7.4-15.9,8.8c7.3,1.4,16.2-0.3,14.3-31.5L303.1,111.9z"/>
	<path class="st1" d="M306,279.7c-38.1-2.1-58.1-15.4-64.5-23.8c-6.1-8.1,3.3-15.5,13-16.7l-1.3-8.9c-5.2,1.3-24.3,7.3-19.7,24.6
		c5.4,20,82.3,52.5,140.4,7C374,261.8,344.1,281.8,306,279.7z"/>
	<path class="st1" d="M299.8,111.8c0,0-5.2-1.8-5.7-7c-0.5-5.1,8-10.9,4.2-16.7c0,0,6.6,2.1,4.9,9.6
		C301.4,105.2,297.5,105.7,299.8,111.8z"/>
</g>
<g>
	<path d="M306.1,115.9c0,0,0,19.6-1.3,25.9c-1.3,6.3-7.6,12.3-17.5,12.6c-9.8,0.4-13.3-7.4,0.6-12.6c14-5.3,37.2,3.5,43.2,11.6
		c6,8.1,6,19.3-18.7,25.9c-24.8,6.7-58.5-2.5-39.1-13c19.4-10.5,54.6,0.3,61.9,6c7.3,5.6,22.2,17.2,5.7,33.3
		c-16.5,16.1-56.2,13.3-71.2,10.2c-14.9-3.2-30.2-12.3-0.3-22.8c29.9-10.5,77.8,4.2,88.6,13.7c0,0,1.6,3.2,1.6,5.6l-5.1,41.3
		c0,0-0.3,3.2-4.1,5.6c-3.8,2.5-45.7,23.5-89.3-4.6c0,0,42.6,24.5,87.7,0.4c0,0,1.9-1.1,2.9-5.3c1-4.2,5.1-38.5,5.1-38.5
		s0.3-2.1-0.6-3.2c-1-1.1-21.6-13-52.4-14.4c-30.8-1.4-56.2,10.9-34.6,15.8c21.6,4.9,58.4,4.9,70.5-10.5
		c12.1-15.4-9.5-31.9-38.8-33.3c-29.2-1.4-28,8.1-18.4,9.8c9.5,1.7,29.9,2.8,42.6-6.7c12.7-9.5-3.5-24.5-23.2-25.9
		c-19.7-1.4-23.2,7.4-15.9,8.8c7.3,1.4,16.2-0.3,14.3-31.5L306.1,115.9z"/>
	<path d="M309,283.7c-38.1-2.1-58.1-15.4-64.5-23.8c-6.1-8.1,3.3-15.5,13-16.7l-1.3-8.9c-5.2,1.3-24.3,7.3-19.7,24.6
		c5.4,20,82.3,52.5,140.4,7C377,265.8,347.1,285.8,309,283.7z"/>
	<path d="M302.8,115.8c0,0-5.2-1.8-5.7-7c-0.5-5.1,8-10.9,4.2-16.7c0,0,6.6,2.1,4.9,9.6C304.4,109.2,300.5,109.7,302.8,115.8z"/>
</g>
<g>
	<path class="st2" d="M609.8,227.5c0,0-33.4,4-25.2,10.2c8.3,6.2,75.7,13.8,116,7.9c40.3-5.9,48.6-14.6,11.2-17.9l3.4-37.2
		c0,0,1.9-6.7-6-9.1c-7.9-2.4-50.3-15.5-102.7,23.4c0,0,46.4-33.6,99.3-20.2c0,0,5.5,0.9,5,6.2l-4,39.6c0,0,14.1,0.3,17.8,2.2
		c3.6,1.9,1.9,5.5-14.5,8.8c-16.4,3.3-76,4.5-103.4-1.7c-27.4-6.2,1-10.2,3.6-10.2L609.8,227.5z"/>
	<path class="st2" d="M607.7,216.3l5.7,31.9c0,0,4.5,9.3,32.4,13.8c27.9,4.5,55.5-1.9,66.5-9.6c0,0-16.7,7.8-38.6,7.6
		c-21.9-0.2-41.5-0.5-57.7-14L607.7,216.3z"/>
	<path class="st2" d="M622.4,194.4l-6.9-32.2c0,0-2.3-6.2,5.5-10c8.4-4.1,48.1-6.4,82.7,7.9c0,0-21.4-7.2-44.1-8.3
		c-22.8-1-31.6,1.9-35.2,3.3c-2.2,0.9-6,1.3-4.3,9.6L626,193L622.4,194.4z"/>
	<path class="st2" d="M687.3,155.6l3.4-25.7c0,0,1.6-7.9-7.6-9.5c-9.1-1.6-41.2-1.4-56,14c0,0,19.1-14.5,56.2-9.8
		c0,0,4.8,0.5,3.8,6.6l-4,23.1L687.3,155.6z"/>
	<polygon class="st2" points="702.3,180.6 703.9,165.2 700.4,180.6 	"/>
	<polygon class="st2" points="630.1,151.3 628.1,138.7 632.2,150.8 	"/>
	<path class="st2" d="M651,124l-1.2-21.5c0,0-2.8,1.2-5.2-0.5c-2.4-1.7-2.2-6.4,4.1-9.7c5.1-2.6,15.5-2.9,4.8-15.9
		c0,0-0.2,1.9-0.9,3.3c-0.7,1.4-4.1,9.8,1.9,6c0,0-2.8,2.8-5,2.2c-2.2-0.5-3.8-4.5-1.9-7.9c1.9-3.4,3.1-10,1.6-13.1
		c0,0,8.6,4.7,10.9,11.7c2.2,7.1,1.7,10.4-4.8,13.1c-2.9,1.2-11.1,2.7-9,6.4c1.5,2.5,3.4,1.2,5.5-0.7l2.4,25.5L651,124z"/>
	<polygon class="st2" points="659.8,122.2 658.2,106.6 661.7,122 	"/>
</g>
<g>
	<path d="M605.8,226.5c0,0-33.4,4-25.2,10.2c8.3,6.2,75.7,13.8,116,7.9c40.3-5.9,48.6-14.6,11.2-17.9l3.4-37.2c0,0,1.9-6.7-6-9.1
		c-7.9-2.4-50.3-15.5-102.7,23.4c0,0,46.4-33.6,99.3-20.2c0,0,5.5,0.9,5,6.2l-4,39.6c0,0,14.1,0.3,17.8,2.2
		c3.6,1.9,1.9,5.5-14.5,8.8c-16.4,3.3-76,4.5-103.4-1.7c-27.4-6.2,1-10.2,3.6-10.2L605.8,226.5z"/>
	<path d="M603.7,215.3l5.7,31.9c0,0,4.5,9.3,32.4,13.8c27.9,4.5,55.5-1.9,66.5-9.6c0,0-16.7,7.8-38.6,7.6
		c-21.9-0.2-41.5-0.5-57.7-14L603.7,215.3z"/>
	<path d="M618.4,193.4l-6.9-32.2c0,0-2.3-6.2,5.5-10c8.4-4.1,48.1-6.4,82.7,7.9c0,0-21.4-7.2-44.1-8.3c-22.8-1-31.6,1.9-35.2,3.3
		c-2.2,0.9-6,1.3-4.3,9.6L622,192L618.4,193.4z"/>
	<path d="M683.3,154.6l3.4-25.7c0,0,1.6-7.9-7.6-9.5c-9.1-1.6-41.2-1.4-56,14c0,0,19.1-14.5,56.2-9.8c0,0,4.8,0.5,3.8,6.6l-4,23.1
		L683.3,154.6z"/>
	<polygon points="698.3,179.6 699.9,164.2 696.4,179.6 	"/>
	<polygon points="626.1,150.3 624.1,137.7 628.2,149.8 	"/>
	<path d="M647,123l-1.2-21.5c0,0-2.8,1.2-5.2-0.5c-2.4-1.7-2.2-6.4,4.1-9.7c5.1-2.6,15.5-2.9,4.8-15.9c0,0-0.2,1.9-0.9,3.3
		c-0.7,1.4-4.1,9.8,1.9,6c0,0-2.8,2.8-5,2.2c-2.2-0.5-3.8-4.5-1.9-7.9c1.9-3.4,3.1-10,1.6-13.1c0,0,8.6,4.7,10.9,11.7
		c2.2,7.1,1.7,10.4-4.8,13.1c-2.9,1.2-11.1,2.7-9,6.4c1.5,2.5,3.4,1.2,5.5-0.7l2.4,25.5L647,123z"/>
	<polygon points="655.8,121.2 654.2,105.6 657.7,121 	"/>
</g>
</svg>
