<?xml version="1.0" encoding="utf-8"?>
<!-- Generator: Adobe Illustrator 21.1.0, SVG Export Plug-In . SVG Version: 6.00 Build 0)  -->
<svg version="1.1" xmlns="http://www.w3.org/2000/svg" xmlns:xlink="http://www.w3.org/1999/xlink" x="0px" y="0px"
	 viewBox="0 0 460.9 435" style="enable-background:new 0 0 460.9 435;" xml:space="preserve">
<style type="text/css">
	.Arched_x0020_Green{fill:url(#SVGID_1_);stroke:#FFFFFF;stroke-width:0.25;stroke-miterlimit:1;}
	.st0{fill:#F5A4C7;}
	.st1{fill:#FFFFFF;}
	.st2{fill:#EC008C;}
	.st3{opacity:0.41;}
	.st4{fill:#A5DFF9;}
	.st5{fill:#00AEEF;}
	.st6{fill:#FFF67E;}
	.st7{fill:#FFF200;}
</style>
<linearGradient id="SVGID_1_" gradientUnits="userSpaceOnUse" x1="-4.863711e-04" y1="1530.708" x2="0.7066" y2="1530.0009">
	<stop  offset="0" style="stop-color:#20AC4B"/>
	<stop  offset="0.9831" style="stop-color:#19361A"/>
</linearGradient>
<g id="back">
</g>
<g id="character">
</g>
<g id="Candy">
	<g>
		<rect x="130.9" y="215.5" class="st0" width="16.3" height="188.3"/>
		<circle class="st1" cx="139" cy="155.5" r="79.9"/>
		<path class="st2" d="M166.4,234.7C97.7,251,58,203.8,58,150.2c0-45.1,36.6-81.7,81.7-81.7c45.1,0,81.7,36.6,81.7,81.7
			c0,36.7-29.7,66.4-66.4,66.4c-36.7,0-66.4-29.7-66.4-66.4c0-28.2,22.8-51,51-51c28.2,0,51,22.8,51,51c0,19.7-16,35.7-35.7,35.7
			c-19.7,0-35.7-16-35.7-35.7c0-11.2,9.1-20.3,20.3-20.3c11.2,0,20.3,9.1,20.3,20.3h-0.2c0,4.1-2.7,7.5-6.1,7.5
			c-3.4,0-6.1-3.3-6.1-7.5h-0.5c0-4.1-2.8-7.5-6.3-7.5c-3.5,0-6.3,3.3-6.3,7.5h0.1c0,11.2,9.1,20.3,20.3,20.3
			c11.2,0,20.3-9.1,20.3-20.3c0-19.7-16-35.7-35.7-35.7c-19.7,0-35.7,16-35.7,35.7c0,28.2,22.8,51,51,51c28.2,0,51-22.8,51-51
			c0-36.7-29.7-66.4-66.4-66.4c-36.7,0-66.4,29.7-66.4,66.4c0,45.1,36.6,81.7,81.7,81.7L166.4,234.7z"/>
		<g class="st3">
			<path class="st1" d="M129.1,74.1c-45.7,0.4-72.6,50.1-67.6,87.9c-0.4-3.1-0.6-6.4,0-9.5c3.3-18,11.8-41.7,30.1-55
				c10.2-7.5,18.8-15.5,32-15.6C123.7,82,129.2,74.1,129.1,74.1L129.1,74.1z"/>
		</g>
		<g class="st3">
			<path class="st1" d="M175.6,206.8c14.7,0.8,28.7-16.6,34.1-28.2c3.4-7.2,4.1-15.9,3.4-23.9c0.2,2.2-0.2,4.5,0,6.8
				c-0.4-4.5-0.5,0.8-0.7,1.6c-0.5,3-1.6,5.9-2.7,8.7c-3,7.6-7.8,15-13.8,20.4c-4.8,4.3-8.8,6.4-15.6,8.5
				C180.4,200.7,175.4,206.7,175.6,206.8L175.6,206.8z"/>
		</g>
	</g>
	<g>
		<rect x="326.7" y="215.5" class="st4" width="16.3" height="188.3"/>
		<circle class="st1" cx="334.8" cy="155.5" r="79.9"/>
		<path class="st5" d="M362.1,234.7c-68.6,16.3-108.4-30.9-108.4-84.5c0-45.1,36.6-81.7,81.7-81.7c45.1,0,81.7,36.6,81.7,81.7
			c0,36.7-29.7,66.4-66.4,66.4c-36.7,0-66.4-29.7-66.4-66.4c0-28.2,22.8-51,51-51c28.2,0,51,22.8,51,51c0,19.7-16,35.7-35.7,35.7
			c-19.7,0-35.7-16-35.7-35.7c0-11.2,9.1-20.3,20.3-20.3c11.2,0,20.3,9.1,20.3,20.3h-0.2c0,4.1-2.7,7.5-6.1,7.5
			c-3.4,0-6.1-3.3-6.1-7.5h-0.4c0-4.1-2.8-7.5-6.3-7.5c-3.5,0-6.3,3.3-6.3,7.5h0.1c0,11.2,9.1,20.3,20.3,20.3
			c11.2,0,20.3-9.1,20.3-20.3c0-19.7-16-35.7-35.7-35.7c-19.7,0-35.7,16-35.7,35.7c0,28.2,22.9,51,51,51c28.2,0,51-22.8,51-51
			c0-36.7-29.7-66.4-66.4-66.4c-36.7,0-66.4,29.7-66.4,66.4c0,45.1,36.6,81.7,81.7,81.7L362.1,234.7z"/>
		<g class="st3">
			<path class="st1" d="M325.8,74.1c-45.7,0.4-72.6,50.1-67.6,87.9c-0.4-3.1-0.6-6.4,0-9.5c3.3-18,11.8-41.7,30.1-55
				c10.2-7.5,18.8-15.5,32-15.6C320.4,82,325.8,74.1,325.8,74.1L325.8,74.1z"/>
		</g>
		<g class="st3">
			<path class="st1" d="M372.3,206.8c14.7,0.8,28.7-16.6,34.1-28.2c3.4-7.2,4.1-15.9,3.4-23.9c0.2,2.2-0.2,4.5,0,6.8
				c-0.4-4.5-0.5,0.8-0.7,1.6c-0.5,3-1.6,5.9-2.7,8.7c-3,7.6-7.8,15-13.8,20.4c-4.8,4.3-8.8,6.4-15.6,8.5
				C377.1,200.7,372.1,206.7,372.3,206.8L372.3,206.8z"/>
		</g>
	</g>
	<g>
		<rect x="226.3" y="215.5" class="st6" width="16.3" height="188.3"/>
		<path class="st1" d="M314.3,155.5c0,44.1-35.8,79.9-79.9,79.9c-44.1,0-79.9-35.8-79.9-79.9c0-44.1,35.8-79.9,79.9-79.9
			C278.5,75.6,314.3,111.3,314.3,155.5z"/>
		<path class="st7" d="M261.7,234.7c-68.6,16.3-108.4-30.9-108.4-84.5c0-45.1,36.6-81.7,81.7-81.7c45.1,0,81.7,36.6,81.7,81.7
			c0,36.7-29.7,66.4-66.4,66.4c-36.7,0-66.4-29.7-66.4-66.4c0-28.2,22.8-51,51-51c28.2,0,51,22.8,51,51c0,19.7-16,35.7-35.7,35.7
			c-19.7,0-35.7-16-35.7-35.7c0-11.2,9.1-20.3,20.3-20.3c11.2,0,20.3,9.1,20.3,20.3h-0.2c0,4.1-2.7,7.5-6.1,7.5
			c-3.4,0-6.1-3.3-6.1-7.5h-0.5c0-4.1-2.8-7.5-6.3-7.5c-3.5,0-6.3,3.3-6.3,7.5h0.1c0,11.2,9.1,20.3,20.3,20.3
			c11.2,0,20.3-9.1,20.3-20.3c0-19.7-16-35.7-35.7-35.7c-19.7,0-35.7,16-35.7,35.7c0,28.2,22.9,51,51,51c28.2,0,51-22.8,51-51
			c0-36.7-29.7-66.4-66.4-66.4c-36.7,0-66.4,29.7-66.4,66.4c0,45.1,36.6,81.7,81.7,81.7L261.7,234.7z"/>
		<g class="st3">
			<path class="st1" d="M226.8,74.1c-45.7,0.4-72.6,50.1-67.6,87.9c-0.4-3.1-0.6-6.4,0-9.5c3.3-18,11.8-41.7,30.1-55
				c10.2-7.5,18.8-15.5,32-15.6C221.3,82,226.8,74.1,226.8,74.1L226.8,74.1z"/>
		</g>
		<g class="st3">
			<path class="st1" d="M273.2,206.8c14.7,0.8,28.7-16.6,34.1-28.2c3.4-7.2,4.1-15.9,3.4-23.9c0.2,2.2-0.2,4.5,0,6.8
				c-0.4-4.5-0.5,0.8-0.7,1.6c-0.5,3-1.6,5.9-2.7,8.7c-3.1,7.6-7.8,15-13.8,20.4c-4.8,4.3-8.8,6.4-15.6,8.5
				C278,200.7,273.1,206.7,273.2,206.8L273.2,206.8z"/>
		</g>
	</g>
</g>
</svg>
