<?xml version="1.0" encoding="utf-8"?>
<!-- Generator: Adobe Illustrator 21.1.0, SVG Export Plug-In . SVG Version: 6.00 Build 0)  -->
<svg version="1.1" id="Layer_1" xmlns="http://www.w3.org/2000/svg" xmlns:xlink="http://www.w3.org/1999/xlink" x="0px" y="0px"
	 viewBox="0 0 322 362.7" style="enable-background:new 0 0 322 362.7;" xml:space="preserve">
<style type="text/css">
	.st0{fill:#EC008C;}
	.st1{fill:#FFF200;}
	.st2{fill:#00AEEF;}
</style>
<g>
	<path class="st0" d="M306.8,214.8c0.9-1.3,1.8-2.7,2.7-4c0.8-1.4,1.7-2.7,2.6-4l-23.5,67.6l-21.2,61L306.8,214.8z"/>
	<path class="st1" d="M305.8,214.8L255,342l38.2-124.2c1.4,0.9,2.8,1.7,4.1,2.6c1.3,0.8,2.8,1.7,4.1,2.5c0.9-1.4,1.8-2.7,2.7-4
		C305,217.5,305.9,216.1,305.8,214.8z"/>
	<path class="st1" d="M236.5,345.1l29.3-122.5c2.6,1.9,5.3,3.7,7.9,5.5c1.9-2.6,3.9-5.2,4.8-7.9L236.5,345.1z"/>
	<path class="st0" d="M293.2,217.7l-46.5,126.1l32.8-123.6c1.9-2.6,3.8-5.2,5.5-7.9c1.4,0.9,2.7,1.8,4,2.7
		C290.5,215.9,291.8,216.8,293.2,217.7z"/>
	<path class="st1" d="M246,232.2c2-2.5,4-5,5.1-7.6l-33.4,123.8l20.6-122.1C240.8,228.3,243.4,230.2,246,232.2z"/>
	<path class="st0" d="M252.1,224.6c1.9-2.5,3.9-5.1,5.8-7.6c2.6,1.9,5.2,3.8,7.9,5.6L228,347.1L252.1,224.6z"/>
	<path class="st1" d="M223.4,227.8l-24.5,122.7L210.6,229c2.5,2.1,4.9,4.2,7.5,6.2C220.2,232.6,222.4,230.2,223.4,227.8z"/>
	<path class="st0" d="M203.3,222.7c2.5,2.1,4.9,4.2,7.3,6.2l-20.2,122.2l6.4-121.3C199,227.4,201.2,225,203.3,222.7z"/>
	<path class="st0" d="M238.3,226.3l-29,123.2l15.1-121.8c2.1-2.5,4.2-4.9,6.2-7.4C233.2,222.4,235.7,224.3,238.3,226.3z"/>
	<path class="st1" d="M189.1,236.8c2.2-2.3,4.4-4.7,6.7-7L180,351.4l1.9-121C184.3,232.6,186.7,234.7,189.1,236.8z"/>
	<path class="st0" d="M182.9,230.4l-11.4,121.5L169,230.6c2.2-2.2,4.6-4.6,6.7-6.8C178.2,226,180.5,228.1,182.9,230.4z"/>
	<path class="st1" d="M162.1,237.4c2.4-2.2,4.6-4.5,7-6.8l-6.9,121.3l-7-121.3C157.5,232.9,159.8,235.2,162.1,237.4z"/>
	<path class="st0" d="M154.2,230.6l-2.5,121.3l-10.4-121.5c2.4-2.2,4.7-4.4,7.1-6.6C150.6,226,153,228.4,154.2,230.6z"/>
	<path class="st1" d="M140.3,230.4l1.9,121l-14.8-121.6c2.2,2.3,4.4,4.7,6.7,7C136.5,234.7,138.9,232.6,140.3,230.4z"/>
	<path class="st0" d="M127.5,229.8l6.4,121.3l-20.2-122.2c2.5-2,4.9-4.1,7.3-6.2C123.1,225,125.3,227.4,127.5,229.8z"/>
	<path class="st1" d="M113.7,228.9l9.8,121.5L98.8,227.8c3.1,2.5,5.3,4.9,7.4,7.3C108.7,233.1,111.2,231,113.7,228.9z"/>
	<path class="st1" d="M86,226.3l19.6,122.1L72.2,224.6c2,2.5,4,5.1,6.1,7.6C80.9,230.2,83.4,228.3,86,226.3z"/>
	<path class="st0" d="M85,226.3c3.5-2,6.1-4,8.6-6c2,2.5,4.1,4.9,6.1,7.4L114,349.5L85,226.3z"/>
	<path class="st1" d="M58.5,222.6l28.5,123L44.8,220.3c1.9,2.6,3.8,5.2,5.8,7.9C53.2,226.3,55.8,224.5,58.5,222.6z"/>
	<path class="st0" d="M96.3,347.1L57.5,222.6c2.6-1.9,5.2-3.7,7.9-5.6c1.9,2.5,4.9,5.1,6.8,7.6L96.3,347.1z"/>
	<path class="st1" d="M31.1,217.7L68.3,342L17.5,214.8c0.9,1.3,1.8,2.7,2.7,4c0.9,1.3,1.8,2.7,2.7,4c1.4-0.8,2.8-1.7,4.1-2.5
		C28.3,219.4,29.8,218.6,31.1,217.7z"/>
	<path class="st0" d="M44.8,220.3l32.8,123.6L31.1,217.7c1.3-0.9,2.7-1.8,4-2.6c1.3-0.9,2.7-1.8,4-2.7C41,215,42.9,217.6,44.8,220.3
		z"/>
	<path class="st0" d="M14.8,210.7c0.8,1.3,1.7,2.7,2.6,4l39.4,120.4l-21.2-61l-23.5-67.6C13,208,13.9,209.4,14.8,210.7z"/>
</g>
<g>
	<path class="st2" d="M256.7,209.9c-8.3-21.9-61.8-35-115-65c-74.1-42-74-73.1-43.4-100.3c-13.6,29.9-9.2,49.2,52.9,84.3
		C187.1,149.1,257.6,181.8,256.7,209.9z M131.6,150.3C80.2,120.4,59,104.9,67.9,79.5C39.1,107.4,87,146.7,121.8,167
		c43.2,25.2,83.7,37.4,97.2,49.8C210.9,194.5,152.3,162.4,131.6,150.3z M98.5,164.9c-41.5-24.8-53-37.5-48.4-62.6
		c-24.2,27.3,7.2,60.3,38.5,79.1c24.6,14.7,60.2,28.5,85.9,36.1C156.6,197.8,118.9,177.1,98.5,164.9z M68.8,182.3
		c-26.3-16.1-33.2-27.4-40.4-40.8c-4.4,15.5,2.1,39.8,30.4,57.2c26,15.9,52.1,15.9,61.5,18.9C115,207,83.7,191.4,68.8,182.3z
		 M178.1,109.2c-63-36.3-75-54.1-37.1-95c-47,36-55,64,27.5,111.7c54.1,31.2,109.2,47.4,117.4,72.1
		C287.6,165.7,207.6,126.1,178.1,109.2z M187.4,101.5c47.2,22.5,89.6,41.4,102.3,58.4c-5.3-26.3-69.5-61.3-92.4-75
		c-61.2-36.6-56.8-48.3-26.2-73.2C129.5,24,107.5,63.5,187.4,101.5z M171.9,25.6c-44.4,28.5,93.1,74.5,106.3,97.9
		C285,78.2,167.8,53,171.9,25.6z"/>
	<g>
		<path class="st0" d="M257,209.8c-6.8-24.1-64.7-41.9-113.3-69.9C123.4,128.6,92.1,109,84,87.6c-5.9-15.8,3-30.4,14.5-42.7l0,0
			c0.1-0.1,0.1-0.3,0-0.4c-0.1-0.1-0.3-0.1-0.4,0c-13.7,12.2-23.4,26.9-18,44.3c7.2,23.5,39.3,44.1,60.6,56.3
			c53,30,107.3,43.1,115.7,65c0.1,0.1,0.2,0.2,0.4,0.2C257,210.1,257.1,210,257,209.8L257,209.8z"/>
		<path class="st0" d="M219.3,216.6c-13.6-15.4-60.8-33.2-98.2-56.3c-31.8-18.9-75.8-51.9-53-80.5l0,0c0.1-0.1,0.1-0.3,0-0.4
			s-0.3-0.1-0.4,0c-28.4,27.3,16.6,65.5,50.3,86.1c44,26.3,86.4,38.7,100.9,51.6c0.1,0.1,0.3,0.1,0.4,0
			C219.4,216.9,219.4,216.7,219.3,216.6L219.3,216.6z"/>
		<path class="st0" d="M174.7,217.3L174.7,217.3c-23.1-10.3-65.2-28.6-86.4-42.4c-28.1-17.4-56.2-44.5-38-72.4l0,0
			c0.1-0.1,0.1-0.3-0.1-0.4c-0.1-0.1-0.3-0.1-0.4,0C26.2,128.8,55,160.9,85.1,180c24.3,15.2,61.7,29.7,89.4,37.9
			c0.1,0,0.3,0,0.4-0.2C174.9,217.5,174.8,217.4,174.7,217.3z"/>
		<path class="st0" d="M120.4,217.3L120.4,217.3c-9.4-5-37-8.7-60.6-24.3c-18.1-11.8-32.6-29.9-31.1-51.4v-0.1
			c0-0.1-0.1-0.3-0.2-0.3c-0.2,0-0.3,0-0.4,0.2c-6.3,21.4,8.4,43.5,28.4,56.6c26.5,17.1,53.8,17,63.6,19.9c0.1,0,0.3,0,0.3-0.1
			C120.6,217.6,120.5,217.4,120.4,217.3z"/>
		<path class="st0" d="M289.9,159.8L289.9,159.8c-13.4-22-70.2-48.4-93.5-59.8c-17.1-8.3-58-27.5-58.8-52.1
			c-0.6-17,17.7-29.1,33.5-35.8l0,0c0.1-0.1,0.2-0.2,0.2-0.4s-0.2-0.2-0.4-0.2c-18,5.3-37.5,17.6-37.7,36.3
			c-0.4,27,38.2,46.8,60.7,57.5c42.3,19.9,82.8,38.3,95.5,54.8c0.1,0.1,0.3,0.2,0.4,0.1C289.9,160.1,290,159.9,289.9,159.8z"/>
		<path class="st0" d="M209.9,80.8c28.9,16.4,61.9,32.1,68.1,42.8c0.1,0.1,0.2,0.2,0.4,0.1c0.2-0.1,0.2-0.2,0.2-0.4l0,0
			c-5.4-14.9-51.9-39.8-65.7-47.8c-47.4-26.8-55.4-36.2-40.8-49.8l0,0c0.1-0.1,0.1-0.3,0-0.4s-0.3-0.2-0.4-0.1
			C145.4,42.2,182.6,65.2,209.9,80.8z"/>
		<path class="st0" d="M141.2,14.4c-13.9,12.6-34,31.5-31.1,50c3.2,21.2,36.3,42.1,55,53.2c50.8,31.1,114.3,52.5,121.2,80.3l0,0
			c0,0.2-0.1,0.3-0.2,0.4c-0.2,0-0.3,0-0.4-0.2c-8.6-25.5-68.1-42-123.7-75.4c-20.6-12.5-53.6-34.1-56.3-57.8
			c-2.3-20.6,18.7-38.5,35.2-51c0.1-0.1,0.3-0.1,0.4,0.1C141.3,14.1,141.3,14.2,141.2,14.4L141.2,14.4z"/>
	</g>
</g>
</svg>
