<?xml version="1.0" encoding="utf-8"?>
<!-- Generator: Adobe Illustrator 21.1.0, SVG Export Plug-In . SVG Version: 6.00 Build 0)  -->
<svg version="1.1" id="Layer_1" xmlns="http://www.w3.org/2000/svg" xmlns:xlink="http://www.w3.org/1999/xlink" x="0px" y="0px"
	 viewBox="0 0 972 496" style="enable-background:new 0 0 972 496;" xml:space="preserve">
<style type="text/css">
	.st0{fill:#231F20;}
	.st1{font-family:'Palatino-Roman';}
	.st2{font-size:66px;}
	.st3{letter-spacing:-2;}
	.st4{font-size:51px;}
	.st5{letter-spacing:-1;}
	.st6{fill:#FFFFFF;}
	.st7{fill:#EC008C;}
	.st8{fill:#FFF200;}
	.st9{fill:#00AEEF;}
	.st10{fill:#2CACE3;}
	.st11{fill:#E1108D;}
	.st12{font-family:'Palatino-BoldItalic';}
	.st13{font-size:26.4px;}
</style>
<rect x="-4" y="-5" width="991.1" height="507"/>
<g>
	<text transform="matrix(1 0 0 1 113.8022 214.8496)"><tspan x="0" y="0" class="st0 st1 st2 st3">S</tspan><tspan x="32.4" y="0" class="st0 st1 st4 st5">UNFLOWER</tspan><tspan x="316.4" y="0" class="st0 st1 st2 st3"> C</tspan><tspan x="375.2" y="0" class="st0 st1 st4 st5">AKE</tspan><tspan x="477.9" y="0" class="st0 st1 st2 st3"> C</tspan><tspan x="536.7" y="0" class="st0 st1 st4 st5">OMPANY</tspan></text>
	<text transform="matrix(1 0 0 1 111.8022 212.8496)"><tspan x="0" y="0" class="st6 st1 st2 st3">S</tspan><tspan x="32.4" y="0" class="st6 st1 st4 st5">UNFLOWER</tspan><tspan x="316.4" y="0" class="st6 st1 st2 st3"> C</tspan><tspan x="375.2" y="0" class="st6 st1 st4 st5">AKE</tspan><tspan x="477.9" y="0" class="st6 st1 st2 st3"> C</tspan><tspan x="536.7" y="0" class="st6 st1 st4 st5">OMPANY</tspan></text>
</g>
<g>
	<path class="st7" d="M596.9,296.8l-3.4-14.5c0,0-0.7-3.6,2.9-6.2c3.6-2.6,12.1-7.6,26.9-8.3c14.8-0.7,29,4.5,32.4,6.7
		c0,0,3.8,1.7,2.8,7.2s-3.4,12.2-3.4,12.2l1.7-12.4c0,0,0.7-3.4-2.8-5.3c-3.4-1.9-32.6-11.9-54.3,2.1c0,0-2.8,1.2-1.6,6.2l2.4,11.2
		L596.9,296.8z"/>
	<path class="st7" d="M586.5,324l-3.1-14.8c0,0-1.6-3.4,3.6-7.2c5.2-3.8,10-7.4,24.1-9.3c14.1-1.9,40.5,1.2,52.7,8.4
		c0,0,5.3,1.9,3.4,10.2l-4.8,21.2l-5-1.7l5.2-20.5c0,0,1-4.5-2.6-6.4c-3.6-1.9-17.6-6.7-28.1-7.6c-10.5-0.9-32.4-2.2-44.6,7.9
		c0,0-2.6,1.6-2.2,6C585.5,314.7,586.5,324,586.5,324z"/>
	<path class="st7" d="M555.3,383.8c0,0,12.4,8.1,50.2,13.1c37.7,5,71.7-0.3,84.3-3.6c12.6-3.3,16.2-11-26.4-15.7
		c-42.6-4.7-82.6,1.2-82.6,1.2l-4.7-35.7c0,0-1.4-4.3,4.7-7.2c6-2.9,31.7-10,57.7-6.6s36.7,8.4,35.5,15c-1.2,6.5-4.3,28.6-4.3,28.6
		l6.5-29.6c0,0,1.1-4.7-5.5-8.4c-7.1-4-46.5-19.1-92.7-2.6c0,0-8.3,2.1-6.7,14.3l5.3,34.6c0,0,21-3.3,48.4-2.8
		c27.4,0.5,68.4,4.7,61.2,11.2C679.1,396.2,595.8,400,555.3,383.8z"/>
	<path class="st7" d="M621.7,269.6l1.9-20.7c0,0-4,2.1-5-2.1c-1-4.1,6.2-3.2,7.2-7.2c0.2-0.7-0.3-8.1-0.3-8.1s-1.2,3.8-6.2,2.9
		c-5-0.9-4.6-10.2,0.5-13.8c4.8-3.3,12.8-12.2,6.2-13.6c0,0,2.9-1.2,4.1,2.4s-0.7,7-6.7,12.7s-1.7,10.9,4.8,4.2
		c0,0-1.4,8.4,0.7,14.5c0,0-3.8,1.9-4.8,2.2c-1,0.3-4.8,3.6,1.2,1.9l-0.2,24.1L621.7,269.6z"/>
	<polygon class="st7" points="632,269.6 632,250.3 633.7,269.4 	"/>
</g>
<g>
	<path class="st8" d="M590.9,296.8l-3.4-14.5c0,0-0.7-3.6,2.9-6.2c3.6-2.6,12.1-7.6,26.9-8.3c14.8-0.7,29,4.5,32.4,6.7
		c0,0,3.8,1.7,2.8,7.2s-3.4,12.2-3.4,12.2l1.7-12.4c0,0,0.7-3.4-2.8-5.3c-3.4-1.9-32.6-11.9-54.3,2.1c0,0-2.8,1.2-1.6,6.2l2.4,11.2
		L590.9,296.8z"/>
	<path class="st8" d="M580.5,324l-3.1-14.8c0,0-1.6-3.4,3.6-7.2c5.2-3.8,10-7.4,24.1-9.3c14.1-1.9,40.5,1.2,52.7,8.4
		c0,0,5.3,1.9,3.4,10.2l-4.8,21.2l-5-1.7l5.2-20.5c0,0,1-4.5-2.6-6.4c-3.6-1.9-17.6-6.7-28.1-7.6c-10.5-0.9-32.4-2.2-44.6,7.9
		c0,0-2.6,1.6-2.2,6C579.5,314.7,580.5,324,580.5,324z"/>
	<path class="st8" d="M549.3,383.8c0,0,12.4,8.1,50.2,13.1c37.7,5,71.7-0.3,84.3-3.6c12.6-3.3,16.2-11-26.4-15.7
		c-42.6-4.7-82.6,1.2-82.6,1.2l-4.7-35.7c0,0-1.4-4.3,4.7-7.2c6-2.9,31.7-10,57.7-6.6s36.7,8.4,35.5,15c-1.2,6.5-4.3,28.6-4.3,28.6
		l6.5-29.6c0,0,1.1-4.7-5.5-8.4c-7.1-4-46.5-19.1-92.7-2.6c0,0-8.3,2.1-6.7,14.3l5.3,34.6c0,0,21-3.3,48.4-2.8
		c27.4,0.5,68.4,4.7,61.2,11.2C673.1,396.2,589.8,400,549.3,383.8z"/>
	<path class="st8" d="M615.7,269.6l1.9-20.7c0,0-4,2.1-5-2.1c-1-4.1,6.2-3.2,7.2-7.2c0.2-0.7-0.3-8.1-0.3-8.1s-1.2,3.8-6.2,2.9
		c-5-0.9-4.6-10.2,0.5-13.8c4.8-3.3,12.8-12.2,6.2-13.6c0,0,2.9-1.2,4.1,2.4s-0.7,7-6.7,12.7s-1.7,10.9,4.8,4.2
		c0,0-1.4,8.4,0.7,14.5c0,0-3.8,1.9-4.8,2.2c-1,0.3-4.8,3.6,1.2,1.9l-0.2,24.1L615.7,269.6z"/>
	<polygon class="st8" points="626,269.6 626,250.3 627.7,269.4 	"/>
</g>
<g>
	<path class="st9" d="M592.9,301.8l-3.4-14.5c0,0-0.7-3.6,2.9-6.2c3.6-2.6,12.1-7.6,26.9-8.3c14.8-0.7,29,4.5,32.4,6.7
		c0,0,3.8,1.7,2.8,7.2s-3.4,12.2-3.4,12.2l1.7-12.4c0,0,0.7-3.4-2.8-5.3c-3.4-1.9-32.6-11.9-54.3,2.1c0,0-2.8,1.2-1.6,6.2l2.4,11.2
		L592.9,301.8z"/>
	<path class="st9" d="M582.5,329l-3.1-14.8c0,0-1.6-3.4,3.6-7.2c5.2-3.8,10-7.4,24.1-9.3c14.1-1.9,40.5,1.2,52.7,8.4
		c0,0,5.3,1.9,3.4,10.2l-4.8,21.2l-5-1.7l5.2-20.5c0,0,1-4.5-2.6-6.4c-3.6-1.9-17.6-6.7-28.1-7.6c-10.5-0.9-32.4-2.2-44.6,7.9
		c0,0-2.6,1.6-2.2,6C581.5,319.7,582.5,329,582.5,329z"/>
	<path class="st9" d="M551.3,388.8c0,0,12.4,8.1,50.2,13.1c37.7,5,71.7-0.3,84.3-3.6c12.6-3.3,16.2-11-26.4-15.7
		c-42.6-4.7-82.6,1.2-82.6,1.2l-4.7-35.7c0,0-1.4-4.3,4.7-7.2c6-2.9,31.7-10,57.7-6.6s36.7,8.4,35.5,15c-1.2,6.5-4.3,28.6-4.3,28.6
		l6.5-29.6c0,0,1.1-4.7-5.5-8.4c-7.1-4-46.5-19.1-92.7-2.6c0,0-8.3,2.1-6.7,14.3l5.3,34.6c0,0,21-3.3,48.4-2.8
		c27.4,0.5,68.4,4.7,61.2,11.2C675.1,401.2,591.8,405,551.3,388.8z"/>
	<path class="st9" d="M617.7,274.6l1.9-20.7c0,0-4,2.1-5-2.1c-1-4.1,6.2-3.2,7.2-7.2c0.2-0.7-0.3-8.1-0.3-8.1s-1.2,3.8-6.2,2.9
		c-5-0.9-4.6-10.2,0.5-13.8c4.8-3.3,12.8-12.2,6.2-13.6c0,0,2.9-1.2,4.1,2.4s-0.7,7-6.7,12.7s-1.7,10.9,4.8,4.2
		c0,0-1.4,8.4,0.7,14.5c0,0-3.8,1.9-4.8,2.2c-1,0.3-4.8,3.6,1.2,1.9l-0.2,24.1L617.7,274.6z"/>
	<polygon class="st9" points="628,274.6 628,255.3 629.7,274.4 	"/>
</g>
<g>
	<path d="M592.9,299.8l-3.4-14.5c0,0-0.7-3.6,2.9-6.2c3.6-2.6,12.1-7.6,26.9-8.3c14.8-0.7,29,4.5,32.4,6.7c0,0,3.8,1.7,2.8,7.2
		s-3.4,12.2-3.4,12.2l1.7-12.4c0,0,0.7-3.4-2.8-5.3c-3.4-1.9-32.6-11.9-54.3,2.1c0,0-2.8,1.2-1.6,6.2l2.4,11.2L592.9,299.8z"/>
	<path d="M582.5,327l-3.1-14.8c0,0-1.6-3.4,3.6-7.2c5.2-3.8,10-7.4,24.1-9.3c14.1-1.9,40.5,1.2,52.7,8.4c0,0,5.3,1.9,3.4,10.2
		l-4.8,21.2l-5-1.7l5.2-20.5c0,0,1-4.5-2.6-6.4c-3.6-1.9-17.6-6.7-28.1-7.6c-10.5-0.9-32.4-2.2-44.6,7.9c0,0-2.6,1.6-2.2,6
		C581.5,317.7,582.5,327,582.5,327z"/>
	<path d="M551.3,386.8c0,0,12.4,8.1,50.2,13.1c37.7,5,71.7-0.3,84.3-3.6c12.6-3.3,16.2-11-26.4-15.7c-42.6-4.7-82.6,1.2-82.6,1.2
		l-4.7-35.7c0,0-1.4-4.3,4.7-7.2c6-2.9,31.7-10,57.7-6.6s36.7,8.4,35.5,15c-1.2,6.5-4.3,28.6-4.3,28.6l6.5-29.6c0,0,1.1-4.7-5.5-8.4
		c-7.1-4-46.5-19.1-92.7-2.6c0,0-8.3,2.1-6.7,14.3l5.3,34.6c0,0,21-3.3,48.4-2.8c27.4,0.5,68.4,4.7,61.2,11.2
		C675.1,399.2,591.8,403,551.3,386.8z"/>
	<path d="M617.7,272.6l1.9-20.7c0,0-4,2.1-5-2.1c-1-4.1,6.2-3.2,7.2-7.2c0.2-0.7-0.3-8.1-0.3-8.1s-1.2,3.8-6.2,2.9
		c-5-0.9-4.6-10.2,0.5-13.8c4.8-3.3,12.8-12.2,6.2-13.6c0,0,2.9-1.2,4.1,2.4s-0.7,7-6.7,12.7s-1.7,10.9,4.8,4.2
		c0,0-1.4,8.4,0.7,14.5c0,0-3.8,1.9-4.8,2.2c-1,0.3-4.8,3.6,1.2,1.9l-0.2,24.1L617.7,272.6z"/>
	<polygon points="628,272.6 628,253.3 629.7,272.4 	"/>
</g>
<g>
	<path class="st10" d="M153.8,370c0,0,33.4,4,25.2,10.2c-8.3,6.2-75.7,13.8-116,7.9c-40.3-5.9-48.6-14.6-11.2-17.9L48.4,333
		c0,0-1.9-6.7,6-9.1s50.3-15.5,102.7,23.4c0,0-46.4-33.6-99.3-20.2c0,0-5.5,0.9-5,6.2l4,39.6c0,0-14.1,0.3-17.8,2.2
		c-3.6,1.9-1.9,5.5,14.5,8.8c16.4,3.3,76,4.5,103.4-1.7c27.4-6.2-1-10.2-3.6-10.2L153.8,370z"/>
	<path class="st10" d="M155.9,358.8l-5.7,31.9c0,0-4.5,9.3-32.4,13.8s-55.5-1.9-66.5-9.6c0,0,16.7,7.8,38.6,7.6
		c21.9-0.2,41.5-0.5,57.7-14L155.9,358.8z"/>
	<path class="st10" d="M141.3,336.9l6.9-32.2c0,0,2.3-6.2-5.5-10c-8.4-4.1-48.1-6.4-82.7,7.9c0,0,21.4-7.2,44.1-8.3
		c22.8-1,31.6,1.9,35.2,3.3c2.2,0.9,6,1.3,4.3,9.6l-5.9,28.3L141.3,336.9z"/>
	<path class="st10" d="M76.3,298.1l-3.4-25.7c0,0-1.6-7.9,7.6-9.5c9.1-1.6,41.2-1.4,56,14c0,0-19.1-14.5-56.2-9.8
		c0,0-4.8,0.5-3.8,6.6l4,23.1L76.3,298.1z"/>
	<polygon class="st10" points="61.3,323.1 59.7,307.7 63.2,323.1 	"/>
	<polygon class="st10" points="133.5,293.8 135.6,281.2 131.4,293.3 	"/>
	<path class="st10" d="M112.6,266.5l1.2-21.5c0,0,2.8,1.2,5.2-0.5c2.4-1.7,2.2-6.4-4.1-9.7c-5.1-2.6-15.5-2.9-4.8-15.9
		c0,0,0.2,1.9,0.9,3.3c0.7,1.4,4.1,9.8-1.9,6c0,0,2.8,2.8,5,2.2c2.2-0.5,3.8-4.5,1.9-7.9c-1.9-3.4-3.1-10-1.6-13.1
		c0,0-8.6,4.7-10.9,11.7c-2.2,7.1-1.7,10.4,4.8,13.1c2.9,1.2,11.1,2.7,9,6.4c-1.5,2.5-3.4,1.2-5.5-0.7l-2.4,25.6L112.6,266.5z"/>
	<polygon class="st10" points="103.9,264.7 105.4,249.1 102,264.5 	"/>
</g>
<g>
	<path class="st8" d="M155.8,369c0,0,33.4,4,25.2,10.2c-8.3,6.2-75.7,13.8-116,7.9c-40.3-5.9-48.6-14.6-11.2-17.9L50.4,332
		c0,0-1.9-6.7,6-9.1s50.3-15.5,102.7,23.4c0,0-46.4-33.6-99.3-20.2c0,0-5.5,0.9-5,6.2l4,39.6c0,0-14.1,0.3-17.8,2.2
		c-3.6,1.9-1.9,5.5,14.5,8.8c16.4,3.3,76,4.5,103.4-1.7c27.4-6.2-1-10.2-3.6-10.2L155.8,369z"/>
	<path class="st8" d="M157.9,357.8l-5.7,31.9c0,0-4.5,9.3-32.4,13.8s-55.5-1.9-66.5-9.6c0,0,16.7,7.8,38.6,7.6
		c21.9-0.2,41.5-0.5,57.7-14L157.9,357.8z"/>
	<path class="st8" d="M143.3,335.9l6.9-32.2c0,0,2.3-6.2-5.5-10c-8.4-4.1-48.1-6.4-82.7,7.9c0,0,21.4-7.2,44.1-8.3
		c22.8-1,31.6,1.9,35.2,3.3c2.2,0.9,6,1.3,4.3,9.6l-5.9,28.3L143.3,335.9z"/>
	<path class="st8" d="M78.3,297.1l-3.4-25.7c0,0-1.6-7.9,7.6-9.5c9.1-1.6,41.2-1.4,56,14c0,0-19.1-14.5-56.2-9.8
		c0,0-4.8,0.5-3.8,6.6l4,23.1L78.3,297.1z"/>
	<polygon class="st8" points="63.3,322.1 61.7,306.7 65.2,322.1 	"/>
	<polygon class="st8" points="135.5,292.8 137.6,280.2 133.4,292.3 	"/>
	<path class="st8" d="M114.6,265.5l1.2-21.5c0,0,2.8,1.2,5.2-0.5c2.4-1.7,2.2-6.4-4.1-9.7c-5.1-2.6-15.5-2.9-4.8-15.9
		c0,0,0.2,1.9,0.9,3.3c0.7,1.4,4.1,9.8-1.9,6c0,0,2.8,2.8,5,2.2c2.2-0.5,3.8-4.5,1.9-7.9c-1.9-3.4-3.1-10-1.6-13.1
		c0,0-8.6,4.7-10.9,11.7c-2.2,7.1-1.7,10.4,4.8,13.1c2.9,1.2,11.1,2.7,9,6.4c-1.5,2.5-3.4,1.2-5.5-0.7l-2.4,25.6L114.6,265.5z"/>
	<polygon class="st8" points="105.9,263.7 107.4,248.1 104,263.5 	"/>
</g>
<g>
	<path class="st7" d="M157.8,367c0,0,33.4,4,25.2,10.2c-8.3,6.2-75.7,13.8-116,7.9c-40.3-5.9-48.6-14.6-11.2-17.9L52.4,330
		c0,0-1.9-6.7,6-9.1s50.3-15.5,102.7,23.4c0,0-46.4-33.6-99.3-20.2c0,0-5.5,0.9-5,6.2l4,39.6c0,0-14.1,0.3-17.8,2.2
		c-3.6,1.9-1.9,5.5,14.5,8.8c16.4,3.3,76,4.5,103.4-1.7c27.4-6.2-1-10.2-3.6-10.2L157.8,367z"/>
	<path class="st7" d="M159.9,355.8l-5.7,31.9c0,0-4.5,9.3-32.4,13.8s-55.5-1.9-66.5-9.6c0,0,16.7,7.8,38.6,7.6
		c21.9-0.2,41.5-0.5,57.7-14L159.9,355.8z"/>
	<path class="st7" d="M145.3,333.9l6.9-32.2c0,0,2.3-6.2-5.5-10c-8.4-4.1-48.1-6.4-82.7,7.9c0,0,21.4-7.2,44.1-8.3
		c22.8-1,31.6,1.9,35.2,3.3c2.2,0.9,6,1.3,4.3,9.6l-5.9,28.3L145.3,333.9z"/>
	<path class="st7" d="M80.3,295.1l-3.4-25.7c0,0-1.6-7.9,7.6-9.5c9.1-1.6,41.2-1.4,56,14c0,0-19.1-14.5-56.2-9.8
		c0,0-4.8,0.5-3.8,6.6l4,23.1L80.3,295.1z"/>
	<polygon class="st7" points="65.3,320.1 63.7,304.7 67.2,320.1 	"/>
	<polygon class="st7" points="137.5,290.8 139.6,278.2 135.4,290.3 	"/>
	<path class="st7" d="M116.6,263.5l1.2-21.5c0,0,2.8,1.2,5.2-0.5c2.4-1.7,2.2-6.4-4.1-9.7c-5.1-2.6-15.5-2.9-4.8-15.9
		c0,0,0.2,1.9,0.9,3.3c0.7,1.4,4.1,9.8-1.9,6c0,0,2.8,2.8,5,2.2c2.2-0.5,3.8-4.5,1.9-7.9c-1.9-3.4-3.1-10-1.6-13.1
		c0,0-8.6,4.7-10.9,11.7c-2.2,7.1-1.7,10.4,4.8,13.1c2.9,1.2,11.1,2.7,9,6.4c-1.5,2.5-3.4,1.2-5.5-0.7l-2.4,25.6L116.6,263.5z"/>
	<polygon class="st7" points="107.9,261.7 109.4,246.1 106,261.5 	"/>
</g>
<g>
	<path d="M156.8,372c0,0,33.4,4,25.2,10.2c-8.3,6.2-75.7,13.8-116,7.9c-40.3-5.9-48.6-14.6-11.2-17.9L51.4,335c0,0-1.9-6.7,6-9.1
		s50.3-15.5,102.7,23.4c0,0-46.4-33.6-99.3-20.2c0,0-5.5,0.9-5,6.2l4,39.6c0,0-14.1,0.3-17.8,2.2c-3.6,1.9-1.9,5.5,14.5,8.8
		c16.4,3.3,76,4.5,103.4-1.7c27.4-6.2-1-10.2-3.6-10.2L156.8,372z"/>
	<path d="M158.9,360.8l-5.7,31.9c0,0-4.5,9.3-32.4,13.8s-55.5-1.9-66.5-9.6c0,0,16.7,7.8,38.6,7.6c21.9-0.2,41.5-0.5,57.7-14
		L158.9,360.8z"/>
	<path d="M144.3,338.9l6.9-32.2c0,0,2.3-6.2-5.5-10c-8.4-4.1-48.1-6.4-82.7,7.9c0,0,21.4-7.2,44.1-8.3c22.8-1,31.6,1.9,35.2,3.3
		c2.2,0.9,6,1.3,4.3,9.6l-5.9,28.3L144.3,338.9z"/>
	<path d="M79.3,300.1l-3.4-25.7c0,0-1.6-7.9,7.6-9.5c9.1-1.6,41.2-1.4,56,14c0,0-19.1-14.5-56.2-9.8c0,0-4.8,0.5-3.8,6.6l4,23.1
		L79.3,300.1z"/>
	<polygon points="64.3,325.1 62.7,309.7 66.2,325.1 	"/>
	<polygon points="136.5,295.8 138.6,283.2 134.4,295.3 	"/>
	<path d="M115.6,268.5l1.2-21.5c0,0,2.8,1.2,5.2-0.5c2.4-1.7,2.2-6.4-4.1-9.7c-5.1-2.6-15.5-2.9-4.8-15.9c0,0,0.2,1.9,0.9,3.3
		c0.7,1.4,4.1,9.8-1.9,6c0,0,2.8,2.8,5,2.2c2.2-0.5,3.8-4.5,1.9-7.9c-1.9-3.4-3.1-10-1.6-13.1c0,0-8.6,4.7-10.9,11.7
		c-2.2,7.1-1.7,10.4,4.8,13.1c2.9,1.2,11.1,2.7,9,6.4c-1.5,2.5-3.4,1.2-5.5-0.7l-2.4,25.6L115.6,268.5z"/>
	<polygon points="106.9,266.7 108.4,251.1 105,266.5 	"/>
</g>
<g>
	<path class="st8" d="M368.2,229.9c0,0,0,19.6-1.3,25.9s-7.6,12.3-17.5,12.6c-9.8,0.4-13.3-7.4,0.6-12.6c14-5.3,37.2,3.5,43.2,11.6
		c6,8.1,6,19.3-18.7,25.9c-24.8,6.7-58.5-2.5-39.1-13s54.6,0.3,61.9,6c7.3,5.6,22.2,17.2,5.7,33.3s-56.2,13.3-71.2,10.2
		c-14.9-3.2-30.2-12.3-0.3-22.8c29.9-10.5,77.8,4.2,88.6,13.7c0,0,1.6,3.2,1.6,5.6l-5.1,41.3c0,0-0.3,3.2-4.1,5.6
		c-3.8,2.5-45.7,23.5-89.3-4.6c0,0,42.6,24.5,87.7,0.4c0,0,1.9-1.1,2.9-5.3c1-4.2,5.1-38.5,5.1-38.5s0.3-2.1-0.6-3.2
		c-1-1.1-21.6-13-52.4-14.4s-56.2,10.9-34.6,15.8c21.6,4.9,58.4,4.9,70.5-10.5c12.1-15.4-9.5-31.9-38.8-33.3
		c-29.2-1.4-28,8.1-18.4,9.8c9.5,1.7,29.9,2.8,42.6-6.7s-3.5-24.5-23.2-25.9s-23.2,7.4-15.9,8.8c7.3,1.4,16.2-0.3,14.3-31.5
		L368.2,229.9z"/>
	<path class="st8" d="M371.1,397.7c-38.1-2.1-58.1-15.4-64.5-23.8c-6.1-8.1,3.3-15.5,13-16.7l-1.3-8.9c-5.2,1.3-24.3,7.3-19.7,24.6
		c5.4,20,82.3,52.5,140.4,7C439.1,379.8,409.2,399.8,371.1,397.7z"/>
	<path class="st8" d="M364.9,229.8c0,0-5.2-1.8-5.7-7c-0.5-5.1,8-10.9,4.2-16.7c0,0,6.6,2.1,4.9,9.6
		C366.5,223.2,362.6,223.7,364.9,229.8z"/>
</g>
<g>
	<path class="st9" d="M374.2,229.9c0,0,0,19.6-1.3,25.9s-7.6,12.3-17.5,12.6c-9.8,0.4-13.3-7.4,0.6-12.6c14-5.3,37.2,3.5,43.2,11.6
		c6,8.1,6,19.3-18.7,25.9c-24.8,6.7-58.5-2.5-39.1-13s54.6,0.3,61.9,6c7.3,5.6,22.2,17.2,5.7,33.3s-56.2,13.3-71.2,10.2
		c-14.9-3.2-30.2-12.3-0.3-22.8c29.9-10.5,77.8,4.2,88.6,13.7c0,0,1.6,3.2,1.6,5.6l-5.1,41.3c0,0-0.3,3.2-4.1,5.6
		c-3.8,2.5-45.7,23.5-89.3-4.6c0,0,42.6,24.5,87.7,0.4c0,0,1.9-1.1,2.9-5.3c1-4.2,5.1-38.5,5.1-38.5s0.3-2.1-0.6-3.2
		c-1-1.1-21.6-13-52.4-14.4s-56.2,10.9-34.6,15.8c21.6,4.9,58.4,4.9,70.5-10.5c12.1-15.4-9.5-31.9-38.8-33.3
		c-29.2-1.4-28,8.1-18.4,9.8c9.5,1.7,29.9,2.8,42.6-6.7s-3.5-24.5-23.2-25.9s-23.2,7.4-15.9,8.8c7.3,1.4,16.2-0.3,14.3-31.5
		L374.2,229.9z"/>
	<path class="st9" d="M377.1,397.7c-38.1-2.1-58.1-15.4-64.5-23.8c-6.1-8.1,3.3-15.5,13-16.7l-1.3-8.9c-5.2,1.3-24.3,7.3-19.7,24.6
		c5.4,20,82.3,52.5,140.4,7C445.1,379.8,415.2,399.8,377.1,397.7z"/>
	<path class="st9" d="M370.9,229.8c0,0-5.2-1.8-5.7-7c-0.5-5.1,8-10.9,4.2-16.7c0,0,6.6,2.1,4.9,9.6
		C372.5,223.2,368.6,223.7,370.9,229.8z"/>
</g>
<g>
	<path class="st9" d="M829.3,364c0,0-33.4,4-25.2,10.2c8.3,6.2,75.7,13.8,116,7.9c40.3-5.9,48.6-14.6,11.2-17.9l3.4-37.2
		c0,0,1.9-6.7-6-9.1s-50.3-15.5-102.7,23.4c0,0,46.4-33.6,99.3-20.2c0,0,5.5,0.9,5,6.2l-4,39.6c0,0,14.1,0.3,17.8,2.2
		c3.6,1.9,1.9,5.5-14.5,8.8c-16.4,3.3-76,4.5-103.4-1.7c-27.4-6.2,1-10.2,3.6-10.2L829.3,364z"/>
	<path class="st9" d="M827.2,352.8l5.7,31.9c0,0,4.5,9.3,32.4,13.8s55.5-1.9,66.5-9.6c0,0-16.7,7.8-38.6,7.6
		c-21.9-0.2-41.5-0.5-57.7-14L827.2,352.8z"/>
	<path class="st9" d="M841.9,330.9l-6.9-32.2c0,0-2.3-6.2,5.5-10c8.4-4.1,48.1-6.4,82.7,7.9c0,0-21.4-7.2-44.1-8.3
		c-22.8-1-31.6,1.9-35.2,3.3c-2.2,0.9-6,1.3-4.3,9.6l5.9,28.3L841.9,330.9z"/>
	<path class="st9" d="M906.8,292.1l3.4-25.7c0,0,1.6-7.9-7.6-9.5c-9.1-1.6-41.2-1.4-56,14c0,0,19.1-14.5,56.2-9.8
		c0,0,4.8,0.5,3.8,6.6l-4,23.1L906.8,292.1z"/>
	<polygon class="st9" points="921.8,317.1 923.4,301.7 919.9,317.1 	"/>
	<polygon class="st9" points="849.6,287.8 847.6,275.2 851.7,287.3 	"/>
	<path class="st9" d="M870.5,260.5l-1.2-21.5c0,0-2.8,1.2-5.2-0.5s-2.2-6.4,4.1-9.7c5.1-2.6,15.5-2.9,4.8-15.9c0,0-0.2,1.9-0.9,3.3
		c-0.7,1.4-4.1,9.8,1.9,6c0,0-2.8,2.8-5,2.2c-2.2-0.5-3.8-4.5-1.9-7.9c1.9-3.4,3.1-10,1.6-13.1c0,0,8.6,4.7,10.9,11.7
		c2.2,7.1,1.7,10.4-4.8,13.1c-2.9,1.2-11.1,2.7-9,6.4c1.5,2.5,3.4,1.2,5.5-0.7l2.4,25.5L870.5,260.5z"/>
	<polygon class="st9" points="879.3,258.7 877.7,243.1 881.2,258.5 	"/>
</g>
<g>
	<path class="st11" d="M836.3,371c0,0-33.4,4-25.2,10.2c8.3,6.2,75.7,13.8,116,7.9c40.3-5.9,48.6-14.6,11.2-17.9l3.4-37.2
		c0,0,1.9-6.7-6-9.1s-50.3-15.5-102.7,23.4c0,0,46.4-33.6,99.3-20.2c0,0,5.5,0.9,5,6.2l-4,39.6c0,0,14.1,0.3,17.8,2.2
		c3.6,1.9,1.9,5.5-14.5,8.8c-16.4,3.3-76,4.5-103.4-1.7c-27.4-6.2,1-10.2,3.6-10.2L836.3,371z"/>
	<path class="st11" d="M834.2,359.8l5.7,31.9c0,0,4.5,9.3,32.4,13.8s55.5-1.9,66.5-9.6c0,0-16.7,7.8-38.6,7.6
		c-21.9-0.2-41.5-0.5-57.7-14L834.2,359.8z"/>
	<path class="st11" d="M848.9,337.9l-6.9-32.2c0,0-2.3-6.2,5.5-10c8.4-4.1,48.1-6.4,82.7,7.9c0,0-21.4-7.2-44.1-8.3
		c-22.8-1-31.6,1.9-35.2,3.3c-2.2,0.9-6,1.3-4.3,9.6l5.9,28.3L848.9,337.9z"/>
	<path class="st11" d="M913.8,299.1l3.4-25.7c0,0,1.6-7.9-7.6-9.5c-9.1-1.6-41.2-1.4-56,14c0,0,19.1-14.5,56.2-9.8
		c0,0,4.8,0.5,3.8,6.6l-4,23.1L913.8,299.1z"/>
	<polygon class="st11" points="928.8,324.1 930.4,308.7 926.9,324.1 	"/>
	<polygon class="st11" points="856.6,294.8 854.6,282.2 858.7,294.3 	"/>
	<path class="st11" d="M877.5,267.5l-1.2-21.5c0,0-2.8,1.2-5.2-0.5s-2.2-6.4,4.1-9.7c5.1-2.6,15.5-2.9,4.8-15.9c0,0-0.2,1.9-0.9,3.3
		c-0.7,1.4-4.1,9.8,1.9,6c0,0-2.8,2.8-5,2.2c-2.2-0.5-3.8-4.5-1.9-7.9c1.9-3.4,3.1-10,1.6-13.1c0,0,8.6,4.7,10.9,11.7
		c2.2,7.1,1.7,10.4-4.8,13.1c-2.9,1.2-11.1,2.7-9,6.4c1.5,2.5,3.4,1.2,5.5-0.7l2.4,25.5L877.5,267.5z"/>
	<polygon class="st11" points="886.3,265.7 884.7,250.1 888.2,265.5 	"/>
</g>
<g>
	<path class="st8" d="M833.3,368c0,0-33.4,4-25.2,10.2c8.3,6.2,75.7,13.8,116,7.9c40.3-5.9,48.6-14.6,11.2-17.9l3.4-37.2
		c0,0,1.9-6.7-6-9.1s-50.3-15.5-102.7,23.4c0,0,46.4-33.6,99.3-20.2c0,0,5.5,0.9,5,6.2l-4,39.6c0,0,14.1,0.3,17.8,2.2
		c3.6,1.9,1.9,5.5-14.5,8.8c-16.4,3.3-76,4.5-103.4-1.7c-27.4-6.2,1-10.2,3.6-10.2L833.3,368z"/>
	<path class="st8" d="M831.2,356.8l5.7,31.9c0,0,4.5,9.3,32.4,13.8s55.5-1.9,66.5-9.6c0,0-16.7,7.8-38.6,7.6
		c-21.9-0.2-41.5-0.5-57.7-14L831.2,356.8z"/>
	<path class="st8" d="M845.9,334.9l-6.9-32.2c0,0-2.3-6.2,5.5-10c8.4-4.1,48.1-6.4,82.7,7.9c0,0-21.4-7.2-44.1-8.3
		c-22.8-1-31.6,1.9-35.2,3.3c-2.2,0.9-6,1.3-4.3,9.6l5.9,28.3L845.9,334.9z"/>
	<path class="st8" d="M910.8,296.1l3.4-25.7c0,0,1.6-7.9-7.6-9.5c-9.1-1.6-41.2-1.4-56,14c0,0,19.1-14.5,56.2-9.8
		c0,0,4.8,0.5,3.8,6.6l-4,23.1L910.8,296.1z"/>
	<polygon class="st8" points="925.8,321.1 927.4,305.7 923.9,321.1 	"/>
	<polygon class="st8" points="853.6,291.8 851.6,279.2 855.7,291.3 	"/>
	<path class="st8" d="M874.5,264.5l-1.2-21.5c0,0-2.8,1.2-5.2-0.5s-2.2-6.4,4.1-9.7c5.1-2.6,15.5-2.9,4.8-15.9c0,0-0.2,1.9-0.9,3.3
		c-0.7,1.4-4.1,9.8,1.9,6c0,0-2.8,2.8-5,2.2c-2.2-0.5-3.8-4.5-1.9-7.9c1.9-3.4,3.1-10,1.6-13.1c0,0,8.6,4.7,10.9,11.7
		c2.2,7.1,1.7,10.4-4.8,13.1c-2.9,1.2-11.1,2.7-9,6.4c1.5,2.5,3.4,1.2,5.5-0.7l2.4,25.5L874.5,264.5z"/>
	<polygon class="st8" points="883.3,262.7 881.7,247.1 885.2,262.5 	"/>
</g>
<g>
	<path d="M831.3,366c0,0-33.4,4-25.2,10.2c8.3,6.2,75.7,13.8,116,7.9c40.3-5.9,48.6-14.6,11.2-17.9l3.4-37.2c0,0,1.9-6.7-6-9.1
		s-50.3-15.5-102.7,23.4c0,0,46.4-33.6,99.3-20.2c0,0,5.5,0.9,5,6.2l-4,39.6c0,0,14.1,0.3,17.8,2.2c3.6,1.9,1.9,5.5-14.5,8.8
		c-16.4,3.3-76,4.5-103.4-1.7c-27.4-6.2,1-10.2,3.6-10.2L831.3,366z"/>
	<path d="M829.2,354.8l5.7,31.9c0,0,4.5,9.3,32.4,13.8s55.5-1.9,66.5-9.6c0,0-16.7,7.8-38.6,7.6c-21.9-0.2-41.5-0.5-57.7-14
		L829.2,354.8z"/>
	<path d="M843.9,332.9l-6.9-32.2c0,0-2.3-6.2,5.5-10c8.4-4.1,48.1-6.4,82.7,7.9c0,0-21.4-7.2-44.1-8.3c-22.8-1-31.6,1.9-35.2,3.3
		c-2.2,0.9-6,1.3-4.3,9.6l5.9,28.3L843.9,332.9z"/>
	<path d="M908.8,294.1l3.4-25.7c0,0,1.6-7.9-7.6-9.5c-9.1-1.6-41.2-1.4-56,14c0,0,19.1-14.5,56.2-9.8c0,0,4.8,0.5,3.8,6.6l-4,23.1
		L908.8,294.1z"/>
	<polygon points="923.8,319.1 925.4,303.7 921.9,319.1 	"/>
	<polygon points="851.6,289.8 849.6,277.2 853.7,289.3 	"/>
	<path d="M872.5,262.5l-1.2-21.5c0,0-2.8,1.2-5.2-0.5s-2.2-6.4,4.1-9.7c5.1-2.6,15.5-2.9,4.8-15.9c0,0-0.2,1.9-0.9,3.3
		c-0.7,1.4-4.1,9.8,1.9,6c0,0-2.8,2.8-5,2.2c-2.2-0.5-3.8-4.5-1.9-7.9c1.9-3.4,3.1-10,1.6-13.1c0,0,8.6,4.7,10.9,11.7
		c2.2,7.1,1.7,10.4-4.8,13.1c-2.9,1.2-11.1,2.7-9,6.4c1.5,2.5,3.4,1.2,5.5-0.7l2.4,25.5L872.5,262.5z"/>
	<polygon points="881.3,260.7 879.7,245.1 883.2,260.5 	"/>
</g>
<text transform="matrix(1 0 0 1 199.7454 148.3516)" class="st8 st12 st13">Baking custom yummy confections for any occassion.</text>
<g>
	<path class="st7" d="M372.2,229.9c0,0,0,19.6-1.3,25.9s-7.6,12.3-17.5,12.6c-9.8,0.4-13.3-7.4,0.6-12.6c14-5.3,37.2,3.5,43.2,11.6
		c6,8.1,6,19.3-18.7,25.9c-24.8,6.7-58.5-2.5-39.1-13s54.6,0.3,61.9,6c7.3,5.6,22.2,17.2,5.7,33.3s-56.2,13.3-71.2,10.2
		c-14.9-3.2-30.2-12.3-0.3-22.8c29.9-10.5,77.8,4.2,88.6,13.7c0,0,1.6,3.2,1.6,5.6l-5.1,41.3c0,0-0.3,3.2-4.1,5.6
		c-3.8,2.5-45.7,23.5-89.3-4.6c0,0,42.6,24.5,87.7,0.4c0,0,1.9-1.1,2.9-5.3c1-4.2,5.1-38.5,5.1-38.5s0.3-2.1-0.6-3.2
		c-1-1.1-21.6-13-52.4-14.4s-56.2,10.9-34.6,15.8c21.6,4.9,58.4,4.9,70.5-10.5c12.1-15.4-9.5-31.9-38.8-33.3
		c-29.2-1.4-28,8.1-18.4,9.8c9.5,1.7,29.9,2.8,42.6-6.7s-3.5-24.5-23.2-25.9s-23.2,7.4-15.9,8.8c7.3,1.4,16.2-0.3,14.3-31.5
		L372.2,229.9z"/>
	<path class="st7" d="M375.1,397.7c-38.1-2.1-58.1-15.4-64.5-23.8c-6.1-8.1,3.3-15.5,13-16.7l-1.3-8.9c-5.2,1.3-24.3,7.3-19.7,24.6
		c5.4,20,82.3,52.5,140.4,7C443.1,379.8,413.2,399.8,375.1,397.7z"/>
	<path class="st7" d="M368.9,229.8c0,0-5.2-1.8-5.7-7c-0.5-5.1,8-10.9,4.2-16.7c0,0,6.6,2.1,4.9,9.6
		C370.5,223.2,366.6,223.7,368.9,229.8z"/>
</g>
<g>
	<path d="M370.2,231.9c0,0,0,19.6-1.3,25.9c-1.3,6.3-7.6,12.3-17.5,12.6c-9.8,0.4-13.3-7.4,0.6-12.6c14-5.3,37.2,3.5,43.2,11.6
		c6,8.1,6,19.3-18.7,25.9c-24.8,6.7-58.5-2.5-39.1-13s54.6,0.3,61.9,6c7.3,5.6,22.2,17.2,5.7,33.3s-56.2,13.3-71.2,10.2
		c-14.9-3.2-30.2-12.3-0.3-22.8s77.8,4.2,88.6,13.7c0,0,1.6,3.2,1.6,5.6l-5.1,41.3c0,0-0.3,3.2-4.1,5.6c-3.8,2.5-45.7,23.5-89.3-4.6
		c0,0,42.6,24.5,87.7,0.4c0,0,1.9-1.1,2.9-5.3c1-4.2,5.1-38.5,5.1-38.5s0.3-2.1-0.6-3.2c-1-1.1-21.6-13-52.4-14.4
		s-56.2,10.9-34.6,15.8c21.6,4.9,58.4,4.9,70.5-10.5c12.1-15.4-9.5-31.9-38.8-33.3c-29.2-1.4-28,8.1-18.4,9.8
		c9.5,1.7,29.9,2.8,42.6-6.7s-3.5-24.5-23.2-25.9s-23.2,7.4-15.9,8.8c7.3,1.4,16.2-0.3,14.3-31.5L370.2,231.9z"/>
	<path d="M373.1,399.7c-38.1-2.1-58.1-15.4-64.5-23.8c-6.1-8.1,3.3-15.5,13-16.7l-1.3-8.9c-5.2,1.3-24.3,7.3-19.7,24.6
		c5.4,20,82.3,52.5,140.4,7C441.1,381.8,411.2,401.8,373.1,399.7z"/>
	<path d="M366.9,231.8c0,0-5.2-1.8-5.7-7c-0.5-5.1,8-10.9,4.2-16.7c0,0,6.6,2.1,4.9,9.6C368.5,225.2,364.6,225.7,366.9,231.8z"/>
</g>
</svg>
